<svg xmlns="http://www.w3.org/2000/svg" xmlns:xlink="http://www.w3.org/1999/xlink" width="118.001" height="83.78" viewBox="0 0 118.001 83.78"><defs><style>.a{fill:url(#a);}</style><linearGradient id="a" x1="0.911" y1="0.099" x2="0.174" y2="0.934" gradientUnits="objectBoundingBox"><stop offset="0" stop-color="#545365"/><stop offset="1" stop-color="#313341"/></linearGradient></defs><path class="a" d="M88.653,83.78H33.973a36.533,36.533,0,0,1-10.518-1.542,37.415,37.415,0,0,1-9.428-4.349A40.868,40.868,0,0,1,0,62.445V21.333A40.874,40.874,0,0,1,14.027,5.893a37.424,37.424,0,0,1,9.428-4.35A36.524,36.524,0,0,1,33.973,0H89.629A36.457,36.457,0,0,1,96.26.775L97.25,1a26.514,26.514,0,0,1,18.034,25.691,28.433,28.433,0,0,1-2.877,12.514,24.821,24.821,0,0,1-20.9,14.208H58.869a8.6,8.6,0,0,1-2.173-.284l-.258-.3a1.656,1.656,0,0,1-.08.205,9.058,9.058,0,0,1-4.549-3.118,10.254,10.254,0,0,1-2.066-4.833A16.157,16.157,0,0,1,49.652,43a10.184,10.184,0,0,1,2.163-5.846,9.048,9.048,0,0,1,4.549-3.118,1.523,1.523,0,0,1,.079.2l.258-.294a8.613,8.613,0,0,1,2.173-.284H90.4A7.753,7.753,0,0,0,97.843,25.7a7.955,7.955,0,0,0-5.29-7.655A7.1,7.1,0,0,0,90.4,17.7H74.41v.057H33.8a22.551,22.551,0,0,0-7.076,1.137A25.776,25.776,0,0,0,9.882,43.579c0,14.27,10.807,25.879,24.091,25.879H118A37.819,37.819,0,0,1,88.653,83.78Z" transform="translate(-0.001)"/></svg>