<svg xmlns="http://www.w3.org/2000/svg" xmlns:xlink="http://www.w3.org/1999/xlink" width="111.383" height="111.221" viewBox="0 0 111.383 111.221"><defs><style>.a{fill:url(#a);}</style><linearGradient id="a" x1="0.786" y1="0.238" x2="0.25" y2="0.778" gradientUnits="objectBoundingBox"><stop offset="0" stop-color="#4e4e61"/><stop offset="1" stop-color="#313342"/></linearGradient></defs><path class="a" d="M48.542,107.828l-3.068-3.071,0,0L3.647,62.883a4.953,4.953,0,0,1-.421-.376,11.032,11.032,0,0,1,0-15.592l42.21-42.25a15.9,15.9,0,0,1,22.5,0L17.917,54.733l38.767,38.8,50.04-50.087a15.937,15.937,0,0,1,0,22.523L64.907,107.828a11.565,11.565,0,0,1-16.366,0ZM40.369,58.8,69.96,29.177A15.891,15.891,0,0,1,91.38,28.2l.046-.046,1,1,.023.023h0l5.1,5.1L86.32,45.519l-5.1-5.1L51.611,70.051Z"/></svg>