<svg xmlns="http://www.w3.org/2000/svg" xmlns:xlink="http://www.w3.org/1999/xlink" width="93.055" height="85.713" viewBox="0 0 93.055 85.713"><defs><style>.a{fill-rule:evenodd;fill:url(#a);}</style><linearGradient id="a" y1="1" x2="0.785" gradientUnits="objectBoundingBox"><stop offset="0" stop-color="#303445"/><stop offset="1" stop-color="#4d4d61"/></linearGradient></defs><path class="a" d="M120.1,86.305h0c-.529.04-3.261.2-9.354.2-4.847,0-8.288-.145-9.5-.2h0c-18.731-.824-32.712-4.085-32.712-7.988s13.981-7.16,32.712-8V83.058c1.225.088,4.732.3,9.579.3,5.816,0,8.729-.242,9.253-.291V70.328c18.691.833,32.641,4.093,32.641,7.988s-13.946,7.156-32.641,7.984h0Zm0-17.294v-11.4h26.085V40.23H75.17V57.612h26.08V69.007c-21.2.974-37.14,5.173-37.14,10.2s15.942,9.227,37.14,10.2v36.527H120.1V89.4c21.15-.974,37.065-5.168,37.065-10.2s-15.9-9.222-37.065-10.2h0Zm0,0Z" transform="translate(-64.11 -40.23)"/></svg>