<svg xmlns="http://www.w3.org/2000/svg" xmlns:xlink="http://www.w3.org/1999/xlink" width="57" height="57" viewBox="0 0 57 57"><defs><style>.a{fill:url(#a);}.b{fill:#fff;}</style><linearGradient id="a" y1="0.5" x2="1" y2="0.5" gradientUnits="objectBoundingBox"><stop offset="0" stop-color="#754097"/><stop offset="0" stop-color="#5000a2"/><stop offset="1" stop-color="#6800ff"/></linearGradient></defs><g transform="translate(148.644 -159.168)"><g transform="translate(-148.645 158.968)"><circle class="a" cx="28.5" cy="28.5" r="28.5" transform="translate(0.001 0.2)"/></g><g transform="translate(-134.318 176.104)"><path class="b" d="M-106.787,224.619h-4.548A14.1,14.1,0,0,1-97.25,210.531a9.551,9.551,0,0,0,9.541-9.541h4.548A14.1,14.1,0,0,1-97.25,215.079,9.55,9.55,0,0,0-106.787,224.619Z" transform="translate(111.335 -200.99)"/><path class="b" d="M-106.792,211.341a16.311,16.311,0,0,1,4.482-2.279,9.533,9.533,0,0,1-4.477-8.072h-4.548A14.052,14.052,0,0,0-106.792,211.341Z" transform="translate(111.335 -200.99)"/><path class="b" d="M-64.749,230.185a16.3,16.3,0,0,1-4.482,2.279,9.533,9.533,0,0,1,4.477,8.072h4.548A14.051,14.051,0,0,0-64.749,230.185Z" transform="translate(88.38 -216.907)"/><path class="b" d="M-81.8,200.99a7.245,7.245,0,0,1-7.243,7.243,7.244,7.244,0,0,1-7.243-7.243Z" transform="translate(103.13 -200.99)"/></g></g></svg>