<svg xmlns="http://www.w3.org/2000/svg" xmlns:xlink="http://www.w3.org/1999/xlink" width="44" height="44" viewBox="0 0 44 44"><defs><style>.a{fill:url(#a);}.b{fill:#fff;}</style><linearGradient id="a" x1="0.5" x2="0.5" y2="1" gradientUnits="objectBoundingBox"><stop offset="0" stop-color="#754097"/><stop offset="1" stop-color="#3b204c"/></linearGradient></defs><g transform="translate(-460 -813)"><circle class="a" cx="22" cy="22" r="22" transform="translate(460 813)"/><path class="b" d="M10,22.209l-.631-.631h0L.745,12.95l-.036-.037-.044-.042a2.267,2.267,0,0,1,0-3.207L9.371.959A3.275,3.275,0,0,1,14,.959L3.692,11.27l8,7.995L22,8.952a3.276,3.276,0,0,1,0,4.632l-8.626,8.625a2.381,2.381,0,0,1-3.369,0ZM8.321,12.11l6.1-6.1a3.274,3.274,0,0,1,4.411-.2l.01-.01,1.262,1.263L17.79,9.374,16.739,8.323l-6.1,6.1Z" transform="translate(470.294 823.748)"/></g></svg>