<svg xmlns="http://www.w3.org/2000/svg" width="40" height="40" viewBox="0 0 40 40"><defs><style>.a{fill:#fff;}.b{fill:#754097;}</style></defs><g transform="translate(-390 -1140)"><g transform="translate(100 886)"><circle class="a" cx="20" cy="20" r="20" transform="translate(290 254)"/></g><path class="b" d="M404.876,207.008h3.2a1.416,1.416,0,0,1,.43.068,1.592,1.592,0,0,1,1.058,1.53,1.546,1.546,0,0,1-1.488,1.592h-6.3a1.707,1.707,0,0,0-.434.057l-.052.059a.291.291,0,0,0-.016-.041,1.822,1.822,0,0,0-.91.623,2.048,2.048,0,0,0-.432,1.169,3.2,3.2,0,0,0,.018.418h0a2.047,2.047,0,0,0,.413.966,1.819,1.819,0,0,0,.909.624.334.334,0,0,0,.016-.041l.052.059a1.713,1.713,0,0,0,.434.057h6.526a4.963,4.963,0,0,0,4.178-2.841,5.654,5.654,0,0,0,.575-2.5,5.3,5.3,0,0,0-3.605-5.137l-.2-.045a7.279,7.279,0,0,0-1.326-.155H396.792c-4.3,0-7.792,3.748-7.792,8.367a8.929,8.929,0,0,0,.4,2.654h0a7.869,7.869,0,0,0,7.4,5.729h10.932a7.562,7.562,0,0,0,5.868-2.863h-16.8a5.008,5.008,0,0,1-4.817-5.174,5.151,5.151,0,0,1,3.367-4.935h0a4.516,4.516,0,0,1,1.451-.227h8.083v-.211" transform="translate(9 947.969)"/></g></svg>