<svg xmlns="http://www.w3.org/2000/svg" width="40" height="40" viewBox="0 0 40 40"><defs><style>.a{fill:#53ae94;}.b{fill:#fff;fill-rule:evenodd;}</style></defs><g transform="translate(-540 -1140)"><g transform="translate(-44)"><circle class="a" cx="20" cy="20" r="20" transform="translate(584 1140)"/><g transform="translate(592 1149)"><path class="b" d="M78.885,52.388h0c-.14.01-.86.053-2.468.053-1.279,0-2.187-.038-2.506-.053h0c-4.943-.217-8.632-1.078-8.632-2.108s3.689-1.889,8.632-2.11v3.361c.323.023,1.249.078,2.528.078,1.535,0,2.3-.064,2.442-.077v-3.36c4.932.22,8.613,1.08,8.613,2.108s-3.68,1.888-8.613,2.107h0Zm0-4.563V44.817h6.883V40.23H67.028v4.587H73.91v3.007c-5.594.257-9.8,1.365-9.8,2.693s4.207,2.435,9.8,2.693v9.639h4.974V53.205c5.581-.257,9.78-1.364,9.78-2.69s-4.2-2.433-9.78-2.692h0Zm0,0Z" transform="translate(-64.11 -40.23)"/></g></g></g></svg>