<svg xmlns="http://www.w3.org/2000/svg" xmlns:xlink="http://www.w3.org/1999/xlink" width="43.042" height="33.541" viewBox="0 0 43.042 33.541"><defs><style>.a{fill:url(#a);}.b{fill:#fff;}.c{fill:#795193;}.d{filter:url(#b);}</style><linearGradient id="a" x1="0.823" y1="0.814" x2="0.12" y2="0.1" gradientUnits="objectBoundingBox"><stop offset="0" stop-color="#3e2250"/><stop offset="1" stop-color="#9767b7"/></linearGradient><filter id="b" x="0" y="0" width="33.582" height="33.541" filterUnits="userSpaceOnUse"><feOffset dy="3" input="SourceAlpha"/><feGaussianBlur stdDeviation="3" result="c"/><feFlood flood-opacity="0.161"/><feComposite operator="in" in2="c"/><feComposite in="SourceGraphic"/></filter></defs><g transform="translate(-235.958 -891.958)"><path class="a" d="M-6407-16734h-23a2,2,0,0,1-2-2v-18a2,2,0,0,1,2-2h23a2,2,0,0,1,2,2v3h-6a2,2,0,0,0-2,2v8a2,2,0,0,0,.586,1.416,1.977,1.977,0,0,0,1.411.586h6v3A2,2,0,0,1-6407-16734Zm2-7h-6v-8h6v8Z" transform="translate(6684.002 17658)"/><g class="d" transform="matrix(1, 0, 0, 1, 235.96, 891.96)"><path class="b" d="M8.724.958A7.693,7.693,0,0,0,3.207,3.212a7.832,7.832,0,0,0,0,11.034A7.693,7.693,0,0,0,8.724,16.5a7.732,7.732,0,0,0,5.518-13.21A7.46,7.46,0,0,0,8.724.958Z" transform="translate(8.07 5.04)"/></g><path class="c" d="M11.777,15.325A.734.734,0,0,1,11,14.548V6.777a.777.777,0,0,1,1.554,0v7.771A.734.734,0,0,1,11.777,15.325Z" transform="translate(240.972 895.068)"/><path class="c" d="M14.549,12.554H6.777a.777.777,0,1,1,0-1.554h7.772a.777.777,0,1,1,0,1.554Z" transform="translate(242.086 893.951)"/></g></svg>