<svg xmlns="http://www.w3.org/2000/svg" width="27.003" height="26.999" viewBox="0 0 27.003 26.999"><defs><style>.a{fill:#fff;}</style></defs><path class="a" d="M-7823.5-14036a13.413,13.413,0,0,1-9.545-3.953,13.41,13.41,0,0,1-3.955-9.547,13.407,13.407,0,0,1,3.955-9.545,13.41,13.41,0,0,1,9.545-3.954,13.416,13.416,0,0,1,9.548,3.954,13.407,13.407,0,0,1,3.955,9.545,13.407,13.407,0,0,1-3.955,9.547A13.418,13.418,0,0,1-7823.5-14036Zm-.1-22.849a9.411,9.411,0,0,0-8.593,5.587,9.409,9.409,0,0,0,1.645,10.15,9.433,9.433,0,0,0,6.957,3.07,9.39,9.39,0,0,0,3-.49.624.624,0,0,0,.462-.466.616.616,0,0,0-.208-.625.617.617,0,0,0-.4-.145.608.608,0,0,0-.25.053,8.121,8.121,0,0,1-2.559.413,8.182,8.182,0,0,1-3.936-1.013,8.162,8.162,0,0,1-3-2.855,8.182,8.182,0,0,1-1.161-5.22,8.184,8.184,0,0,1,2.326-4.814,8.177,8.177,0,0,1,5.756-2.393,8.085,8.085,0,0,1,5.76,2.393,8.111,8.111,0,0,1,2.374,5.5,8.112,8.112,0,0,1-2.031,5.636l-3.427-3.416,2.185-2.181a.634.634,0,0,0,0-.887l-3.741-3.744a.637.637,0,0,0-.445-.181.635.635,0,0,0-.444.181l-5.089,5.079a.643.643,0,0,0,0,.889l3.776,3.741a.578.578,0,0,0,.427.188h.021a.578.578,0,0,0,.427-.187l2.015-2.008,3.886,3.868a.6.6,0,0,0,.428.187h.013a.675.675,0,0,0,.448-.169l.042-.07h.032a9.357,9.357,0,0,0,2.064-10.268,9.368,9.368,0,0,0-8.677-5.8h-.08Zm-.621,12.942h0l-2.883-2.884,4.2-4.2,2.88,2.883-2.181,2.182-2.015,2.016Z" transform="translate(7837.001 14063)"/></svg>