<svg xmlns="http://www.w3.org/2000/svg" xmlns:xlink="http://www.w3.org/1999/xlink" width="55.132" height="55.132" viewBox="0 0 55.132 55.132">
  <defs>
    <linearGradient id="linear-gradient" x1="0.5" x2="0.5" y2="1" gradientUnits="objectBoundingBox">
      <stop offset="0" stop-color="#754097"/>
      <stop offset="1" stop-color="#3b204c"/>
    </linearGradient>
    <linearGradient id="linear-gradient-2" x1="0.935" y1="0.557" x2="0.183" y2="0.5" gradientUnits="objectBoundingBox">
      <stop offset="0" stop-color="#9767b7"/>
      <stop offset="1" stop-color="#4c345c"/>
    </linearGradient>
    <linearGradient id="linear-gradient-3" x1="0.2" y1="0.5" x2="0.953" y2="0.5" xlink:href="#linear-gradient"/>
    <linearGradient id="linear-gradient-4" x1="0.979" y1="0.584" x2="-0.012" y2="0.5" xlink:href="#linear-gradient"/>
  </defs>
  <g id="Group_2242" data-name="Group 2242" transform="translate(0 0)">
    <rect id="Rectangle_1457" data-name="Rectangle 1457" width="3.249" height="7.147" transform="translate(43.647 16.08) rotate(45)" fill="url(#linear-gradient)"/>
    <path id="Rectangle_1453" data-name="Rectangle 1453" d="M0,0H32.487a0,0,0,0,1,0,0V0A7.147,7.147,0,0,1,25.34,7.147H0a0,0,0,0,1,0,0V0A0,0,0,0,1,0,0Z" transform="translate(27.107 45.484) rotate(-45)" fill="url(#linear-gradient-2)"/>
    <path id="Rectangle_1454" data-name="Rectangle 1454" d="M0,0H18.842a7.147,7.147,0,0,1,7.147,7.147v0a0,0,0,0,1,0,0H0a0,0,0,0,1,0,0V0A0,0,0,0,1,0,0Z" transform="translate(20.215 29.404) rotate(-45)" fill="#754097"/>
    <path id="Rectangle_1455" data-name="Rectangle 1455" d="M7,0H31.984a7,7,0,0,1,7,7v.147a0,0,0,0,1,0,0H0a0,0,0,0,1,0,0V7A7,7,0,0,1,7,0Z" transform="translate(0 27.566) rotate(-45)" fill="url(#linear-gradient-3)"/>
    <path id="Rectangle_1456" data-name="Rectangle 1456" d="M0,0H38.984a0,0,0,0,1,0,0V.147a7,7,0,0,1-7,7H7a7,7,0,0,1-7-7V0A0,0,0,0,1,0,0Z" transform="translate(5.054 22.512) rotate(45)" fill="url(#linear-gradient-4)"/>
  </g>
</svg>
