<svg xmlns="http://www.w3.org/2000/svg" xmlns:xlink="http://www.w3.org/1999/xlink" width="107" height="107" viewBox="0 0 107 107"><defs><style>.a{fill:#fff;}.b{fill:url(#c);}.c{fill:url(#d);}.d{fill:#754097;}.e{fill:url(#e);}.f{fill:url(#f);}.g{filter:url(#a);}</style><filter id="a" x="0" y="0" width="107" height="107" filterUnits="userSpaceOnUse"><feOffset dy="3" input="SourceAlpha"/><feGaussianBlur stdDeviation="3" result="b"/><feFlood flood-opacity="0"/><feComposite operator="in" in2="b"/><feComposite in="SourceGraphic"/></filter><linearGradient id="c" x1="0.5" x2="0.5" y2="1" gradientUnits="objectBoundingBox"><stop offset="0" stop-color="#754097"/><stop offset="1" stop-color="#3b204c"/></linearGradient><linearGradient id="d" x1="0.935" y1="0.557" x2="0.183" y2="0.5" gradientUnits="objectBoundingBox"><stop offset="0" stop-color="#9767b7"/><stop offset="1" stop-color="#4c345c"/></linearGradient><linearGradient id="e" x1="0.2" y1="0.5" x2="0.953" y2="0.5" xlink:href="#c"/><linearGradient id="f" x1="0.979" y1="0.584" x2="-0.012" y2="0.5" xlink:href="#c"/></defs><g transform="translate(-13900 -7602)"><g transform="translate(13909 7608)"><g class="g" transform="matrix(1, 0, 0, 1, -9, -6)"><path class="a" d="M44.5,0A44.5,44.5,0,1,1,0,44.5,44.5,44.5,0,0,1,44.5,0Z" transform="translate(9 6)"/></g><g transform="translate(16.616 16.718)"><rect class="b" width="3.249" height="7.147" transform="translate(43.647 16.08) rotate(45)"/><path class="c" d="M0,0H32.487a0,0,0,0,1,0,0V0A7.147,7.147,0,0,1,25.34,7.147H0a0,0,0,0,1,0,0V0A0,0,0,0,1,0,0Z" transform="translate(27.107 45.484) rotate(-45)"/><path class="d" d="M0,0H18.842a7.147,7.147,0,0,1,7.147,7.147v0a0,0,0,0,1,0,0H0a0,0,0,0,1,0,0V0A0,0,0,0,1,0,0Z" transform="translate(20.215 29.404) rotate(-45)"/><path class="e" d="M7,0H31.984a7,7,0,0,1,7,7v.147a0,0,0,0,1,0,0H0a0,0,0,0,1,0,0V7A7,7,0,0,1,7,0Z" transform="translate(0 27.566) rotate(-45)"/><path class="f" d="M0,0H38.984a0,0,0,0,1,0,0V.147a7,7,0,0,1-7,7H7a7,7,0,0,1-7-7V0A0,0,0,0,1,0,0Z" transform="translate(5.054 22.512) rotate(45)"/></g></g></g></svg>