<svg xmlns="http://www.w3.org/2000/svg" width="27.003" height="26.999" viewBox="0 0 27.003 26.999"><defs><style>.a{fill:#c074f9;}</style></defs><path class="a" d="M-7823.5-14036a13.413,13.413,0,0,1-9.545-3.953,13.41,13.41,0,0,1-3.955-9.547,13.407,13.407,0,0,1,3.955-9.545,13.41,13.41,0,0,1,9.545-3.954,13.416,13.416,0,0,1,9.548,3.954,13.407,13.407,0,0,1,3.955,9.545,13.407,13.407,0,0,1-3.955,9.547A13.418,13.418,0,0,1-7823.5-14036Zm-7.392-10.3c-.071,0-.108.1-.108.193v2.259c0,2.1,3.376,4.454,7.9,4.454s7.9-2.352,7.9-4.454v-2.259c0-.1-.037-.193-.106-.193s-.126.064-.2.187c-.973,1.566-4.093,2.661-7.588,2.661s-6.616-1.095-7.584-2.661C-7830.765-14046.241-7830.835-14046.306-7830.893-14046.306Zm-.005-5.743c-.067,0-.1.08-.1.155v2.657c0,1.983,3.542,3.6,7.9,3.6s7.9-1.613,7.9-3.6v-2.657c0-.075-.036-.155-.1-.155s-.122.055-.193.159c-.956,1.388-4.08,2.357-7.6,2.357s-6.643-.97-7.6-2.357C-7830.8-14052.021-7830.86-14052.049-7830.9-14052.049Zm7.792-7.2c-4.354,0-7.9,1.332-7.9,2.969v1.422c0,1.734,3.542,3.145,7.9,3.145s7.9-1.41,7.9-3.145v-1.422C-7815.211-14057.917-7818.753-14059.249-7823.106-14059.249Z" transform="translate(7837.001 14063)"/></svg>