<svg xmlns="http://www.w3.org/2000/svg" width="28.999" height="29.002" viewBox="0 0 28.999 29.002">
  <path id="Subtraction_78" data-name="Subtraction 78" d="M-7813-14033h-19a5,5,0,0,1-5-5v-19a5,5,0,0,1,5-5h19a5.006,5.006,0,0,1,5,5v19A5.006,5.006,0,0,1-7813-14033Zm-17.808-10.506h0a2.459,2.459,0,0,0-.19.936c0,2.486,3.929,4.51,8.759,4.51s8.759-2.023,8.759-4.51a2.459,2.459,0,0,0-.19-.936c-.847,2.078-4.452,3.586-8.569,3.586s-7.725-1.508-8.569-3.586Zm0-3.346h0a2.459,2.459,0,0,0-.19.936c0,2.489,3.929,4.514,8.759,4.514s8.759-2.024,8.759-4.514a2.459,2.459,0,0,0-.19-.936c-.851,2.076-4.455,3.582-8.569,3.582s-7.725-1.506-8.569-3.582Zm0-3.239h0a2.414,2.414,0,0,0-.19.928c0,2.491,3.929,4.518,8.759,4.518s8.759-2.026,8.759-4.518a2.41,2.41,0,0,0-.19-.928c-.85,2.073-4.455,3.578-8.569,3.578s-7.726-1.5-8.569-3.578Zm8.569-6.91c-4.83,0-8.759,2.026-8.759,4.518s3.929,4.514,8.759,4.514,8.759-2.024,8.759-4.514S-7817.41-14057-7822.24-14057Z" transform="translate(7836.999 14062.001)" fill="#fff"/>
</svg>
