<svg xmlns="http://www.w3.org/2000/svg" width="29" height="29" viewBox="0 0 29 29">
  <g id="Group_3022" data-name="Group 3022" transform="translate(-242 -1837)">
    <g id="Group_3012" data-name="Group 3012">
      <circle id="Ellipse_201" data-name="Ellipse 201" cx="14.5" cy="14.5" r="14.5" transform="translate(242 1837)" fill="#c074f9"/>
      <g id="Group_3017" data-name="Group 3017" transform="translate(166.148 1720.676)">
        <g id="Group_3016" data-name="Group 3016" transform="translate(77.852 120.77)">
          <path id="Subtraction_67" data-name="Subtraction 67" d="M-8076.041-15887.81a1.384,1.384,0,0,1-1.026-.359.07.07,0,0,1-.013-.011l0,0-.015-.014-1.749-1.748s0-.006-.008-.01l-.005,0a.05.05,0,0,0-.014-.013c-1.172-1.173.644-4.895,4.047-8.3,2.631-2.636,5.553-4.406,7.27-4.406a1.4,1.4,0,0,1,1.032.359l.007.008a.088.088,0,0,0,.021.02l1.744,1.744.028.028c.571.569.464,1.746-.3,3.313a19.7,19.7,0,0,1-3.742,4.988C-8071.4-15889.58-8074.327-15887.81-8076.041-15887.81Zm8.194-14.342c-1.506,0-4.194,1.677-6.69,4.172-3.138,3.139-4.884,6.5-3.891,7.5a1.1,1.1,0,0,0,.81.279c1.509,0,4.2-1.676,6.693-4.171a19.612,19.612,0,0,0,3.494-4.555c.735-1.418.875-2.464.393-2.945a1.089,1.089,0,0,0-.8-.28Z" transform="translate(8081 15904.445)" fill="#fff" stroke="rgba(0,0,0,0)" stroke-miterlimit="10" stroke-width="1"/>
        </g>
      </g>
    </g>
    <path id="Subtraction_66" data-name="Subtraction 66" d="M-7988.131-15766.91a17.755,17.755,0,0,1-7-1.209,18.59,18.59,0,0,0,2.508-1.774,22.536,22.536,0,0,0,4.49.429,21.973,21.973,0,0,0,4.888-.515.614.614,0,0,0,.064-.015l.063-.014c.057-.017.117-.03.174-.043l.032-.008a1.122,1.122,0,0,1,.115-.032l.01,0,.042-.011.018,0,.044-.013a.766.766,0,0,0,.084-.023l.012,0,.015,0c.029-.007.065-.017.111-.031a.625.625,0,0,0,.083-.025l.009,0,.011,0a.928.928,0,0,0,.111-.031l.05-.016.049-.016.111-.036c.027-.01.062-.023.091-.031l.049-.019.017-.006.026-.01.026-.01a.537.537,0,0,0,.08-.027l.036-.014.022-.009c.042-.017.084-.033.128-.049a.183.183,0,0,1,.032-.014l.02-.007c.019-.009.038-.017.057-.023l.023-.01.051-.022.03-.011.006,0,.036-.014.043-.02.063-.028a.523.523,0,0,1,.071-.031l.017-.008.022-.011.021-.01.04-.02.036-.018.036-.018.048-.024.047-.023a.445.445,0,0,1,.063-.031l.018-.011c.031-.018.057-.032.085-.045l.029-.019.011-.006.008,0c.036-.022.069-.041.1-.061l.044-.026.008-.008c.021-.012.041-.024.062-.037l.022-.014c.014-.01.028-.02.043-.028l.008-.006,0,0a.173.173,0,0,1,.03-.019.454.454,0,0,1,.052-.039l.006,0,.014-.01.011-.007a1.708,1.708,0,0,0,.84-1.248v2.512C-7979.4-15768.259-7983.317-15766.91-7988.131-15766.91Zm0-3.786a23.506,23.506,0,0,1-3.326-.228c.167-.157.343-.327.537-.521a24,24,0,0,0,2.038-2.309c.245.008.5.012.751.012,4.442,0,8.057-1.148,8.057-2.56,0-1.207-2.709-2.258-6.441-2.5a1.845,1.845,0,0,0-.061-.42c4.158.259,7.176,1.5,7.176,2.963v2.555C-7979.4-15772.045-7983.317-15770.7-7988.131-15770.7Z" transform="translate(8247.148 17625.121)" fill="#fff" stroke="rgba(0,0,0,0)" stroke-miterlimit="10" stroke-width="1"/>
  </g>
</svg>
