<svg xmlns="http://www.w3.org/2000/svg" width="29" height="29" viewBox="0 0 29 29">
  <path id="Subtraction_63" data-name="Subtraction 63" d="M-7822.5-14034a14.4,14.4,0,0,1-10.252-4.249,14.405,14.405,0,0,1-4.25-10.253,14.419,14.419,0,0,1,4.25-10.253A14.415,14.415,0,0,1-7822.5-14063a14.417,14.417,0,0,1,10.253,4.245A14.408,14.408,0,0,1-7808-14048.5a14.4,14.4,0,0,1-4.246,10.253A14.4,14.4,0,0,1-7822.5-14034Zm-2.915-12.361v1.417c0,1.251,2.953,2.27,6.582,2.27s6.583-1.019,6.583-2.27v-.028l0-1.863a1.294,1.294,0,0,1-.636.942l-.007.006-.007,0-.007,0-.007,0a.272.272,0,0,1-.035.019.055.055,0,0,1-.018.014l0,0-.006.007-.014.007-.007,0-.013.009-.013.009a.572.572,0,0,0-.048.035s-.007,0-.007,0h-.006a.018.018,0,0,0-.009,0s-.007.007-.01.007l-.01.007-.014.008a.053.053,0,0,1-.014.01l-.007,0-.008,0-.011.006a.1.1,0,0,1-.019.011h0l0,0-.007,0s0,0-.006,0l-.007,0a.032.032,0,0,0-.014.007.044.044,0,0,1-.014.011l-.006,0-.008,0-.011,0-.011.007a.052.052,0,0,0-.024.015l-.025.011-.025.014s0,0-.007,0l-.007,0a.009.009,0,0,0-.006,0l-.008,0-.007,0a.016.016,0,0,1-.008,0l-.006,0-.007,0-.01,0-.007,0-.039.021-.014.007-.007,0-.025.011a.248.248,0,0,1-.042.021l-.007,0s0,0-.007,0l0,0h-.005a.055.055,0,0,0-.025.015l-.012,0c-.026.01-.05.02-.073.03a.344.344,0,0,0-.05.021l-.018.008-.006,0a.036.036,0,0,0-.014,0l-.011,0,0,0a.013.013,0,0,1-.008,0l-.006,0s-.007,0-.01,0l-.015.006-.014,0h-.007l-.007,0a.1.1,0,0,1-.025.011l-.013.006-.005,0-.018.007-.01,0-.017.007-.015.007-.06.025-.018,0-.021.006,0,0-.018,0-.088.032-.007,0a.209.209,0,0,1-.053.018l-.011,0-.007,0a.076.076,0,0,0-.036.01.019.019,0,0,0-.012,0l-.005,0a.013.013,0,0,0-.007,0,.034.034,0,0,1-.014,0s-.007,0-.007,0h-.014s0,0-.007,0l-.007,0-.011,0a.027.027,0,0,0-.018,0l-.011,0-.042.014-.042.011-.018.007-.006,0-.009,0h-.012l-.008,0a.165.165,0,0,1-.023.008l-.046.011-.039.014-.042.011-.039.011-.025.007-.014,0a.241.241,0,0,1-.05.013.44.44,0,0,0-.046.015l-.042.011-.049.011-.028.007-.035.011-.039.01-.018,0-.021.007-.023,0-.033.006a16.521,16.521,0,0,1-3.685.389,16.521,16.521,0,0,1-3.685-.389.648.648,0,0,1-.073-.018l-.022,0-.035-.01-.039-.011-.01,0-.007,0h-.007l-.018,0a.13.13,0,0,0-.036-.007l-.011,0a.221.221,0,0,1-.035-.012l-.01,0-.031-.008a.023.023,0,0,0-.015,0s-.007,0-.014,0l-.013,0-.023-.007-.021-.007-.084-.021-.082-.024-.014,0-.014,0-.053-.018-.081-.024h0a.057.057,0,0,1-.028-.008l-.011,0-.039-.011h0l0,0h0a.058.058,0,0,1-.03-.011.1.1,0,0,0-.02-.007h-.005l-.01,0-.01,0-.009,0-.009,0-.024-.008-.011,0-.017-.006a.447.447,0,0,0-.089-.032c-.019-.007-.044-.014-.06-.018a.813.813,0,0,0-.141-.057l-.007,0h0a.013.013,0,0,1-.01,0,.031.031,0,0,0-.018-.007l-.013-.006-.012,0-.008,0-.006,0h0a.028.028,0,0,1-.012,0l0,0a.045.045,0,0,0-.021-.007l-.007,0-.007,0-.011,0h0l-.008,0-.006,0h-.007l-.007,0,0,0a.039.039,0,0,0-.021-.007.276.276,0,0,0-.078-.035l-.013-.006-.007,0a.04.04,0,0,0-.019-.009l-.018-.008-.032-.018h-.007l-.018-.009,0,0-.013-.007-.014-.007-.039-.021-.018-.011-.014-.006a.2.2,0,0,0-.043-.019l-.035-.021-.011,0h0l0,0h0l-.006,0a.023.023,0,0,0-.013-.008l0,0h0a.087.087,0,0,1-.019-.012l-.008-.006-.008,0-.011,0-.018-.01h0l-.006,0a.012.012,0,0,0-.008,0,.194.194,0,0,1-.032-.019l-.01-.006-.009,0-.008,0-.008,0-.009-.007,0,0h0l-.025-.014c-.01-.008-.01-.008-.013-.008-.02-.015-.04-.028-.057-.039l-.021-.014-.018-.011-.01-.007c-.012-.007-.018-.011-.021-.019a.173.173,0,0,1-.06-.042,1.678,1.678,0,0,1-.533-.561l-.028.025c.14-.132.285-.269.441-.422,1.036.841,3.416,1.385,6.064,1.385,3.627,0,6.579-1.017,6.579-2.267v-1.895a1.265,1.265,0,0,1-.635.938.092.092,0,0,1-.036.028l0,0a.147.147,0,0,1-.02.018l-.01,0a.018.018,0,0,1-.011.007l-.007,0s0,0-.007,0l-.007.007-.011.007-.008.006-.007,0-.023.014-.008.008-.01,0-.011.011s0,0-.007,0h0l0,0h-.01a.648.648,0,0,1-.106.063l-.014.011s-.005,0-.009.006l0,.006h0l0,0a.225.225,0,0,0-.042.021.024.024,0,0,1-.014.008l-.007,0s0,0-.006,0h0l-.006,0-.047.022-.007,0-.018.011a.264.264,0,0,0-.056.028l-.011.007-.018.011a.058.058,0,0,0-.018.007l-.042.018-.006,0,0,0-.011,0-.007,0-.011,0-.006,0h0l0,0-.007,0-.011,0a.016.016,0,0,0-.01.009h0l0,0h-.005l-.024.011-.025.007-.035.018,0,0-.007,0a.107.107,0,0,0-.032.014l-.007,0a.181.181,0,0,0-.042.014l-.011,0c-.015.007-.028.014-.046.021a.029.029,0,0,1-.014.008l-.01,0-.011,0h-.007l-.018.011-.015,0-.008,0a.142.142,0,0,1-.027.01l-.014,0-.006,0a.365.365,0,0,1-.046.021l-.009,0-.013,0-.01,0a.1.1,0,0,0-.02,0l-.01,0-.009,0-.018.008a.212.212,0,0,1-.067.021l-.007,0-.006,0,0,0-.008,0-.007,0a.174.174,0,0,0-.031.011l-.007,0a.059.059,0,0,0-.021.008l-.009,0-.009,0-.011,0-.007,0a.044.044,0,0,1-.021.008l-.007,0-.05.015-.018.007-.028.007-.01,0-.007,0-.007,0a.125.125,0,0,1-.031.006l-.078.024a.231.231,0,0,0-.057.018l-.007,0-.025.007-.011,0-.014,0-.014,0-.011,0-.011,0-.018.007-.018,0-.071.014-.014,0a.265.265,0,0,0-.035.011l-.029.007-.01,0-.007,0a.429.429,0,0,0-.051.013l-.051.012-.025.008-.021,0-.05.015-.046.01a16.447,16.447,0,0,1-3.681.389,16.519,16.519,0,0,1-3.685-.389l-.092-.024a1.452,1.452,0,0,1-.159-.039h-.011l-.01,0a.012.012,0,0,0-.011,0h0l0,0h-.006l-.035-.011-.01,0a.457.457,0,0,0-.067-.014l-.018,0a.168.168,0,0,0-.039-.014l-.012,0-.013,0-.018,0a.111.111,0,0,0-.036-.014l-.013,0a.247.247,0,0,0-.036-.011.012.012,0,0,0-.01,0l-.01,0a.033.033,0,0,1-.022-.009h0a.012.012,0,0,1-.008,0h-.011l-.018-.007h0a.128.128,0,0,1-.034-.007h0l-.018-.007-.024-.007-.021-.007-.045-.015-.011,0a.251.251,0,0,0-.035-.011l0,0-.017-.007-.012,0-.005,0h0l-.007,0-.025-.008-.011,0a.083.083,0,0,1-.032-.015l-.039-.01-.011,0a.013.013,0,0,0-.008,0l-.006,0h0l-.01,0-.007-.008-.011,0-.007,0-.007,0h0a.024.024,0,0,1-.015,0,.019.019,0,0,0-.014,0l-.014,0a.108.108,0,0,0-.024-.011l-.011,0-.005,0a.066.066,0,0,0-.019-.008c.207-.247.4-.494.586-.737a15.665,15.665,0,0,0,4.283.546c3.631,0,6.586-1.015,6.586-2.262v-1.892l0,0a.06.06,0,0,0,0-.024c0-1.251-2.955-2.27-6.586-2.27a15.932,15.932,0,0,0-3.992.466l-.247-.247a.038.038,0,0,0-.018-.018,1.056,1.056,0,0,0-.78-.271c-1.291,0-3.492,1.334-5.478,3.32a14.845,14.845,0,0,0-2.82,3.759c-.577,1.185-.658,2.071-.229,2.5l.01.011,0,0,.007.007,1.316,1.316.011.015.014.01a1.061,1.061,0,0,0,.773.269c1.149,0,3.006-1.04,4.845-2.715Zm-6.032.916a.829.829,0,0,1-.61-.212.835.835,0,0,1-.212-.614c0-1.133,1.259-3.157,3.141-5.04s3.908-3.145,5.043-3.145a.832.832,0,0,1,.61.212.825.825,0,0,1,.211.607c0,1.137-1.26,3.166-3.141,5.05S-7830.312-14045.445-7831.446-14045.445Zm6.646-1.5h0a.3.3,0,0,1,.023-.025c.351-.351.694-.722,1.019-1.1-.327.389-.67.761-1.019,1.106l-.018.018,0,0Zm5.968-3.682a16.875,16.875,0,0,1-3.051-.261,3.876,3.876,0,0,0,.421-1.563,1.043,1.043,0,0,0-.268-.773l-.011-.011-.014-.01-.819-.821a15.9,15.9,0,0,1,3.742-.411c3.349,0,6.074.863,6.074,1.924S-7815.483-14050.623-7818.833-14050.623Z" transform="translate(7837.001 14063)" fill="#fff"/>
</svg>
