<svg xmlns="http://www.w3.org/2000/svg" width="12.819" height="13.416" viewBox="0 0 12.819 13.416">
  <path id="XMLID_1346_" d="M15.819,9.616V13.67a.738.738,0,0,1-.745.745H3.745A.738.738,0,0,1,3,13.67V9.616a.745.745,0,0,1,1.491,0v3.309h9.838V9.616a.745.745,0,1,1,1.491,0ZM6.965,5.308l1.7-1.744v6.454a.745.745,0,1,0,1.491,0V3.579l1.7,1.729a.756.756,0,0,0,.537.224.772.772,0,0,0,.522-.209.751.751,0,0,0,.015-1.058L9.946,1.224a.756.756,0,0,0-1.073,0L5.907,4.264A.743.743,0,1,0,6.965,5.308Z" transform="translate(-3 -1)" fill="#fff"/>
</svg>
