<svg xmlns="http://www.w3.org/2000/svg" width="27.003" height="26.999" viewBox="0 0 27.003 26.999"><defs><style>.a{fill:#c074f9;}</style></defs><path class="a" d="M-7823.5-14036a13.413,13.413,0,0,1-9.545-3.953,13.41,13.41,0,0,1-3.955-9.547,13.407,13.407,0,0,1,3.955-9.545,13.41,13.41,0,0,1,9.545-3.954,13.462,13.462,0,0,1,9.109,3.532h.049v.046a13.487,13.487,0,0,1,3.173,4.416,13.389,13.389,0,0,1,1.171,5.5,13.407,13.407,0,0,1-3.955,9.547A13.418,13.418,0,0,1-7823.5-14036Zm-6.494-20a2,2,0,0,0-2,2v9a2,2,0,0,0,2,2h13a2,2,0,0,0,2-2v-9a2,2,0,0,0-2-2Zm12.935,12h-12.875a1,1,0,0,1-1-1v-9a1,1,0,0,1,1-1h12.875a1,1,0,0,1,1,1v2h-4.376a2,2,0,0,0-2,2v1a2.006,2.006,0,0,0,2,2h4.376v2A1,1,0,0,1-7817.061-14044Zm1-4h-4.313a1,1,0,0,1-1-1v-1a1,1,0,0,1,1-1h4.313v3Z" transform="translate(7837.001 14063)"/></svg>