<svg xmlns="http://www.w3.org/2000/svg" width="28.999" height="29.002" viewBox="0 0 28.999 29.002">
  <path id="Subtraction_76" data-name="Subtraction 76" d="M-7813-14033h-19a5,5,0,0,1-5-5v-19a5,5,0,0,1,5-5h19a5.006,5.006,0,0,1,5,5v19A5.006,5.006,0,0,1-7813-14033Zm-17-22a2,2,0,0,0-2,2v12a2,2,0,0,0,2,2h15a2,2,0,0,0,2-2v-1.63h-4.175a1.433,1.433,0,0,1-1.027-.427,1.451,1.451,0,0,1-.431-1.027v-5.819a1.46,1.46,0,0,1,1.458-1.458H-7813V-14053a2,2,0,0,0-2-2Zm12.782,5.093v5.819H-7813v-5.819Z" transform="translate(7836.999 14062.001)" fill="#fff"/>
</svg>
