<svg id="Layer_1" data-name="Layer 1" xmlns="http://www.w3.org/2000/svg" xmlns:xlink="http://www.w3.org/1999/xlink" viewBox="0 0 32 32"><defs><style>.cls-1{fill:#fff;}.cls-2{fill:url(#linear-gradient);}.cls-3{fill:url(#linear-gradient-2);}.cls-4{fill:url(#linear-gradient-3);}.cls-5{fill:url(#linear-gradient-4);}.cls-6{fill:#3b204c;}</style><linearGradient id="linear-gradient" x1="-1645.98" y1="546.26" x2="-1659.88" y2="546.26" gradientTransform="translate(794.46 -1543.01) rotate(-45)" gradientUnits="userSpaceOnUse"><stop offset="0" stop-color="#764196"/><stop offset="1" stop-color="#3b204c"/></linearGradient><linearGradient id="linear-gradient-2" x1="-1655.2" y1="551.84" x2="-1645.9" y2="551.84" xlink:href="#linear-gradient"/><linearGradient id="linear-gradient-3" x1="-1659.74" y1="557.57" x2="-1645.84" y2="557.57" xlink:href="#linear-gradient"/><linearGradient id="linear-gradient-4" x1="-1658.52" y1="544.9" x2="-1658.52" y2="558.79" xlink:href="#linear-gradient"/></defs><ellipse id="Ellipse_122" data-name="Ellipse 122" class="cls-1" cx="15.97" cy="16" rx="16" ry="15.5"/><path class="cls-2" d="M7.82,14.23,14.14,8.1a2.65,2.65,0,0,1,3.66,0h0l-10,9.67h0A2.43,2.43,0,0,1,7.82,14.23Z"/><path class="cls-3" d="M13.31,16.64,18.13,12a2.65,2.65,0,0,1,3.66,0h0l-6.65,6.45Z"/><path class="cls-4" d="M14.14,23.9l10-9.67h0a2.45,2.45,0,0,1,0,3.54L17.8,23.9a2.65,2.65,0,0,1-3.66,0Z"/><path class="cls-5" d="M14.14,23.9,7.82,17.77a2.43,2.43,0,0,1,0-3.54h0l10,9.67h0A2.65,2.65,0,0,1,14.14,23.9Z"/><polygon class="cls-6" points="20.79 14.55 19.96 13.74 21.79 11.97 22.62 12.78 20.79 14.55"/></svg>