<svg xmlns="http://www.w3.org/2000/svg" xmlns:xlink="http://www.w3.org/1999/xlink" width="40.5" height="40.5" viewBox="0 0 40.5 40.5">
  <defs>
    <linearGradient id="linear-gradient" x1="1" y1="0.176" x2="0" y2="1.395" gradientUnits="objectBoundingBox">
      <stop offset="0" stop-color="#4d4d61"/>
      <stop offset="1" stop-color="#333545"/>
    </linearGradient>
  </defs>
  <g id="Group_2992" data-name="Group 2992" transform="translate(-618 -1178)">
    <g id="Group_2990" data-name="Group 2990" transform="translate(32 38)">
      <g id="Group_2860" data-name="Group 2860" transform="translate(-883.602 448.5)">
        <circle id="Ellipse_120" data-name="Ellipse 120" cx="20.25" cy="20.25" r="20.25" transform="translate(1469.603 691.5)" fill="#efefef"/>
      </g>
    </g>
    <g id="Group_2991" data-name="Group 2991" transform="translate(629 1188)">
      <path id="Path_16567" data-name="Path 16567" d="M10.638,13.574h-3.7A5.708,5.708,0,0,1,10.268,7.9a4.307,4.307,0,0,0,1.111-.74,1.568,1.568,0,0,0,.247-1.728A2.886,2.886,0,0,0,8.787,3.7,3,3,0,0,0,5.7,6.54L2,6.047A6.824,6.824,0,0,1,8.787,0,6.747,6.747,0,0,1,15.08,3.949a5.227,5.227,0,0,1-.987,5.8,9.43,9.43,0,0,1-1.974,1.357A2.412,2.412,0,0,0,10.638,13.574Z" fill="url(#linear-gradient)"/>
      <path id="Path_16568" data-name="Path 16568" d="M10.436,14.457a2.468,2.468,0,1,1-2.468-2.412A2.468,2.468,0,0,1,10.436,14.457Z" transform="translate(0.819 2.819)" fill="url(#linear-gradient)"/>
    </g>
  </g>
</svg>
