<svg xmlns="http://www.w3.org/2000/svg" width="25.692" height="17.5" viewBox="0 0 25.692 17.5"><defs><style>.a{fill:#fff;}</style></defs><g transform="translate(1553.223 427)"><path class="a" d="M-1536.636-423.3h3.341a1.483,1.483,0,0,1,.449.071,1.663,1.663,0,0,1,1.1,1.6,1.615,1.615,0,0,1-1.554,1.663h-6.586a1.791,1.791,0,0,0-.454.059l-.054.061a.329.329,0,0,0-.017-.043,1.9,1.9,0,0,0-.95.651,2.139,2.139,0,0,0-.452,1.221,3.352,3.352,0,0,0,.019.437h0a2.14,2.14,0,0,0,.432,1.009,1.9,1.9,0,0,0,.95.651.354.354,0,0,0,.017-.043l.054.062a1.791,1.791,0,0,0,.454.059h6.818a5.185,5.185,0,0,0,4.365-2.968,5.908,5.908,0,0,0,.6-2.614,5.541,5.541,0,0,0-3.767-5.366l-.207-.048a7.611,7.611,0,0,0-1.385-.162h-11.625c-4.5,0-8.14,3.916-8.14,8.742a9.328,9.328,0,0,0,.413,2.773h0a8.221,8.221,0,0,0,7.727,5.985h11.422a7.9,7.9,0,0,0,6.13-2.992h-17.552a5.232,5.232,0,0,1-5.032-5.406,5.381,5.381,0,0,1,3.518-5.156h0a4.715,4.715,0,0,1,1.516-.237h8.445v-.22"/></g></svg>