<svg xmlns="http://www.w3.org/2000/svg" width="19.883" height="19.836" viewBox="0 0 19.883 19.836"><defs><style>.a{fill:#fff;}</style></defs><path class="a" d="M8.666,19.229l-.547-.548h0L.652,11.213a.882.882,0,0,1-.075-.067,1.967,1.967,0,0,1,0-2.781L8.112.831a2.839,2.839,0,0,1,4.017,0L3.2,9.76l6.92,6.92,8.933-8.933a2.839,2.839,0,0,1,0,4.017l-7.465,7.465a2.066,2.066,0,0,1-2.921,0ZM7.207,10.484,12.489,5.2a2.838,2.838,0,0,1,3.824-.174l.008-.008L16.5,5.2l.911.911-2,2-.91-.91L9.214,12.491Z" transform="translate(-0.001 0.002)"/></svg>