<svg xmlns="http://www.w3.org/2000/svg" width="17.12" height="15.77" viewBox="0 0 17.12 15.77"><defs><style>.a{fill:#fff;fill-rule:evenodd;}</style></defs><g transform="translate(860.89 -221.23)"><path class="a" d="M74.412,48.707h0c-.1.007-.6.037-1.721.037-.892,0-1.525-.027-1.747-.037h0c-3.446-.152-6.018-.751-6.018-1.47s2.572-1.317,6.018-1.471V48.11c.225.016.871.054,1.762.054,1.07,0,1.606-.045,1.7-.054V45.768c3.439.153,6.005.753,6.005,1.47s-2.566,1.317-6.005,1.469h0Zm0-3.182v-2.1h4.8v-3.2H66.145v3.2h4.8v2.1c-3.9.179-6.833.952-6.833,1.877s2.933,1.7,6.833,1.877V56h3.468V49.277C78.3,49.1,81.23,48.326,81.23,47.4s-2.926-1.7-6.819-1.877h0Zm0,0Z" transform="translate(-925 181)"/></g></svg>