<svg xmlns="http://www.w3.org/2000/svg" xmlns:xlink="http://www.w3.org/1999/xlink" width="109.999" height="94.001" viewBox="0 0 109.999 94.001"><defs><style>.a,.c{fill:#fff;}.a{opacity:0.27;}.b{opacity:0.59;mix-blend-mode:multiply;isolation:isolate;}.d{fill:url(#a);}.e{fill:url(#b);}.f{fill:url(#c);}.g{fill:url(#d);}</style><linearGradient id="a" y1="0.5" x2="1" y2="0.5" gradientUnits="objectBoundingBox"><stop offset="0" stop-color="#754097"/><stop offset="0" stop-color="#5000a2"/><stop offset="1" stop-color="#6800ff"/></linearGradient><linearGradient id="b" x1="0" y1="1.141" x2="3.122" y2="1.141" xlink:href="#a"/><linearGradient id="c" x1="-2.122" y1="-0.141" x2="1" y2="-0.141" xlink:href="#a"/><linearGradient id="d" x1="-0.499" y1="1.692" x2="1.518" y2="1.692" xlink:href="#a"/></defs><g transform="translate(-1386 -1193)"><path class="a" d="M-13542.227-4805a63.41,63.41,0,0,1-7.773-30.524,63.337,63.337,0,0,1,63.2-63.477,62.91,62.91,0,0,1,46.8,20.823V-4810a5,5,0,0,1-5,5Z" transform="translate(14936 6092)"/><g class="b" transform="translate(1422.607 1233.5)"><path class="c" d="M90.368,42.022H81.8A17.987,17.987,0,0,1,63.837,59.989,26.559,26.559,0,0,0,37.31,86.521h8.565A17.985,17.985,0,0,1,63.837,68.554,26.562,26.562,0,0,0,90.368,42.022Z" transform="translate(-37.31 -42.022)"/><path class="c" d="M45.866,61.515a30.763,30.763,0,0,1,8.44-4.292,17.953,17.953,0,0,1-8.431-15.2H37.31A26.463,26.463,0,0,0,45.866,61.515Z" transform="translate(-37.31 -42.022)"/><path class="c" d="M87.855,71.217a30.734,30.734,0,0,1-8.441,4.293,17.951,17.951,0,0,1,8.432,15.2h8.565A26.465,26.465,0,0,0,87.855,71.217Z" transform="translate(-43.353 -46.212)"/><path class="c" d="M65.8,55.175A13.156,13.156,0,0,0,78.948,42.022h-26.3A13.156,13.156,0,0,0,65.8,55.175Z" transform="translate(-39.511 -42.022)"/><path class="d" d="M90.368,42.022H81.8A17.987,17.987,0,0,1,63.837,59.989,26.559,26.559,0,0,0,37.31,86.521h8.565A17.985,17.985,0,0,1,63.837,68.554,26.562,26.562,0,0,0,90.368,42.022Z" transform="translate(-37.31 -42.022)"/><path class="e" d="M45.866,61.515a30.763,30.763,0,0,1,8.44-4.292,17.953,17.953,0,0,1-8.431-15.2H37.31A26.463,26.463,0,0,0,45.866,61.515Z" transform="translate(-37.31 -42.022)"/><path class="f" d="M87.855,71.217a30.734,30.734,0,0,1-8.441,4.293,17.951,17.951,0,0,1,8.432,15.2h8.565A26.465,26.465,0,0,0,87.855,71.217Z" transform="translate(-43.353 -46.212)"/><path class="g" d="M65.8,55.175A13.156,13.156,0,0,0,78.948,42.022h-26.3A13.156,13.156,0,0,0,65.8,55.175Z" transform="translate(-39.511 -42.022)"/></g></g></svg>