<svg xmlns="http://www.w3.org/2000/svg" xmlns:xlink="http://www.w3.org/1999/xlink" width="74.001" height="67" viewBox="0 0 74.001 67">
  <defs>
    <linearGradient id="linear-gradient" y1="0.5" x2="1" y2="0.5" gradientUnits="objectBoundingBox">
      <stop offset="0" stop-color="#754097"/>
      <stop offset="0" stop-color="#5000a2"/>
      <stop offset="1" stop-color="#6800ff"/>
    </linearGradient>
    <linearGradient id="linear-gradient-2" x1="0" y1="1.141" x2="3.122" y2="1.141" xlink:href="#linear-gradient"/>
    <linearGradient id="linear-gradient-3" x1="-2.122" y1="-0.141" x2="1" y2="-0.141" xlink:href="#linear-gradient"/>
    <linearGradient id="linear-gradient-4" x1="-0.499" y1="1.692" x2="1.518" y2="1.692" xlink:href="#linear-gradient"/>
  </defs>
  <g id="Group_2972" data-name="Group 2972" transform="translate(1419 5203)">
    <path id="Intersection_3" data-name="Intersection 3" d="M7.343,67A42.925,42.925,0,0,1,74,13.361V62a5,5,0,0,1-5,5Z" transform="translate(-1419 -5203)" fill="#fff"/>
    <g id="Group_2971" data-name="Group 2971" transform="translate(-1396.311 -5183.133)" style="mix-blend-mode: multiply;isolation: isolate">
      <g id="Group_2384" data-name="Group 2384">
        <path id="Path_16353" data-name="Path 16353" d="M75.128,42.022h-6.1A12.82,12.82,0,0,1,56.217,54.828,18.93,18.93,0,0,0,37.31,73.739h6.1a12.819,12.819,0,0,1,12.8-12.806A18.932,18.932,0,0,0,75.128,42.022Z" transform="translate(-37.31 -42.022)" fill="#fff"/>
        <path id="Path_16354" data-name="Path 16354" d="M43.409,55.916a21.927,21.927,0,0,1,6.016-3.059,12.8,12.8,0,0,1-6.009-10.835h-6.1A18.862,18.862,0,0,0,43.409,55.916Z" transform="translate(-37.31 -42.022)" fill="#fff"/>
        <path id="Path_16355" data-name="Path 16355" d="M85.43,71.217a21.906,21.906,0,0,1-6.016,3.06,12.8,12.8,0,0,1,6.01,10.835h6.1A18.863,18.863,0,0,0,85.43,71.217Z" transform="translate(-53.711 -53.394)" fill="#fff"/>
        <path id="Path_16356" data-name="Path 16356" d="M62.018,51.4a9.377,9.377,0,0,0,9.374-9.375H52.644A9.377,9.377,0,0,0,62.018,51.4Z" transform="translate(-43.283 -42.022)" fill="#fff"/>
      </g>
      <g id="Group_2385" data-name="Group 2385">
        <path id="Path_16357" data-name="Path 16357" d="M75.128,42.022h-6.1A12.82,12.82,0,0,1,56.217,54.828,18.93,18.93,0,0,0,37.31,73.739h6.1a12.819,12.819,0,0,1,12.8-12.806A18.932,18.932,0,0,0,75.128,42.022Z" transform="translate(-37.31 -42.022)" fill="url(#linear-gradient)"/>
        <path id="Path_16358" data-name="Path 16358" d="M43.409,55.916a21.927,21.927,0,0,1,6.016-3.059,12.8,12.8,0,0,1-6.009-10.835h-6.1A18.862,18.862,0,0,0,43.409,55.916Z" transform="translate(-37.31 -42.022)" fill="url(#linear-gradient-2)"/>
        <path id="Path_16359" data-name="Path 16359" d="M85.43,71.217a21.906,21.906,0,0,1-6.016,3.06,12.8,12.8,0,0,1,6.01,10.835h6.1A18.863,18.863,0,0,0,85.43,71.217Z" transform="translate(-53.711 -53.394)" fill="url(#linear-gradient-3)"/>
        <path id="Path_16360" data-name="Path 16360" d="M62.018,51.4a9.377,9.377,0,0,0,9.374-9.375H52.644A9.377,9.377,0,0,0,62.018,51.4Z" transform="translate(-43.283 -42.022)" fill="url(#linear-gradient-4)"/>
      </g>
    </g>
  </g>
</svg>
