<svg xmlns="http://www.w3.org/2000/svg" width="40" height="40" viewBox="0 0 40 40">
  <g id="Group_3023" data-name="Group 3023" transform="translate(-618 -1229)">
    <g id="Group_2857" data-name="Group 2857" transform="translate(328 975)">
      <circle id="Ellipse_33" data-name="Ellipse 33" cx="20" cy="20" r="20" transform="translate(290 254)" fill="#fff"/>
    </g>
    <g id="polkadot-new-dot-logo" transform="translate(630 1237.541)">
      <path id="Path_16593" data-name="Path 16593" d="M8.614,0A8.649,8.649,0,0,0,0,8.614a8.849,8.849,0,0,0,.454,2.8,1.232,1.232,0,0,0,1.515.755,1.226,1.226,0,0,0,.732-1.51,5.684,5.684,0,0,1-.335-2.2,6.214,6.214,0,1,1,6.588,6.389s-1.209.074-1.811.147a6.254,6.254,0,0,0-.659.131.079.079,0,0,1-.113,0h0a.079.079,0,0,1,0-.1l.187-1.021L7.695,8.9A1.181,1.181,0,1,0,5.385,8.41s-2.7,12.5-2.7,12.615A1.135,1.135,0,0,0,3.5,22.4l.02,0h.063a1.134,1.134,0,0,0,1.383-.815.308.308,0,0,0,.007-.031.292.292,0,0,1,0-.056c.034-.147.374-1.811.374-1.811a3.064,3.064,0,0,1,2.536-2.412c.261-.04,1.356-.114,1.356-.114A8.608,8.608,0,0,0,8.614,0Z" fill="#1e1e1e"/>
      <path id="Path_16594" data-name="Path 16594" d="M816.394,2182.98a1.436,1.436,0,0,0-1.7,1.113c0,.007,0,.014,0,.022a1.43,1.43,0,0,0,1.093,1.7h.043a1.407,1.407,0,0,0,1.7-1.037c0-.005,0-.012,0-.017v-.079A1.489,1.489,0,0,0,816.394,2182.98Z" transform="translate(-807.258 -2163.118)" fill="#e6007a"/>
    </g>
  </g>
</svg>
