<svg xmlns="http://www.w3.org/2000/svg" xmlns:xlink="http://www.w3.org/1999/xlink" width="55" height="55" viewBox="0 0 55 55"><defs><style>.a{fill:url(#a);}.b{fill:#fff;}</style><linearGradient id="a" x1="0.5" x2="0.5" y2="1" gradientUnits="objectBoundingBox"><stop offset="0" stop-color="#754097"/><stop offset="1" stop-color="#3b204c"/></linearGradient></defs><circle class="a" cx="27.5" cy="27.5" r="27.5"/><path class="b" d="M12.5,27.762l-.789-.789h0L.931,16.187l-.043-.044c-.02-.017-.039-.036-.058-.055a2.833,2.833,0,0,1,0-4.008L11.713,1.2a4.1,4.1,0,0,1,5.79,0L4.613,14.087l9.994,9.994L27.5,11.192a4.094,4.094,0,0,1,0,5.789L16.715,27.762a2.977,2.977,0,0,1-4.21,0ZM10.4,15.138,18.027,7.51a4.094,4.094,0,0,1,5.514-.251l.011-.011.218.218.046.045h0l1.315,1.315-2.894,2.894L20.922,10.4l-7.628,7.628Z" transform="translate(12.869 13.435)"/></svg>