<svg xmlns="http://www.w3.org/2000/svg" xmlns:xlink="http://www.w3.org/1999/xlink" width="42" height="42" viewBox="0 0 42 42"><defs><style>.a{fill:#fff;}.b{fill:url(#a);}.c{fill:url(#b);}.d{fill:url(#c);}.e{fill:url(#d);}.f{fill:#3b204c;}</style><linearGradient id="a" x1="0.96" y1="0.529" x2="0.215" y2="0.58" gradientUnits="objectBoundingBox"><stop offset="0" stop-color="#754097"/><stop offset="1" stop-color="#3b204c"/></linearGradient><linearGradient id="b" x1="0.147" y1="0.533" x2="0.89" y2="0.713" xlink:href="#a"/><linearGradient id="c" x1="0.241" y1="0.484" x2="0.912" y2="0.446" xlink:href="#a"/><linearGradient id="d" x1="0.891" y1="0.516" x2="0.088" y2="0.529" xlink:href="#a"/></defs><circle class="a" cx="21" cy="21" r="21"/><g transform="translate(6.898 6.898)"><path class="b" d="M3.675,0h12.7a3.675,3.675,0,0,1,3.675,3.675v0a0,0,0,0,1,0,0H0a0,0,0,0,1,0,0v0A3.675,3.675,0,0,1,3.675,0Z" transform="translate(0 14.176) rotate(-45)"/><path class="c" d="M0,0H9.69a3.675,3.675,0,0,1,3.675,3.675v0a0,0,0,0,1,0,0H0a0,0,0,0,1,0,0V0A0,0,0,0,1,0,0Z" transform="translate(10.396 15.121) rotate(-45)"/><path class="d" d="M0,0H20.048a0,0,0,0,1,0,0V0a3.675,3.675,0,0,1-3.675,3.675H3.675A3.675,3.675,0,0,1,0,0V0A0,0,0,0,1,0,0Z" transform="translate(11.577 25.753) rotate(-45)"/><path class="e" d="M3.675,0h12.7a3.675,3.675,0,0,1,3.675,3.675v0a0,0,0,0,1,0,0H0a0,0,0,0,1,0,0v0A3.675,3.675,0,0,1,3.675,0Z" transform="translate(14.176 28.352) rotate(-135)"/><rect class="f" width="1.671" height="3.675" transform="translate(21.028 12.05) rotate(-135)"/></g></svg>