<svg xmlns="http://www.w3.org/2000/svg" width="38.741" height="38.154" viewBox="0 0 38.741 38.154"><defs><style>.a{fill:#fff;}</style></defs><path class="a" d="M20.31,41.243a.5.5,0,0,1-.072-.089q-.149-.127-.29-.265L6.2,27.426a5.431,5.431,0,0,1,0-7.793L19.947,6.171a5.71,5.71,0,0,1,7.957,0L10.182,23.529,23.926,36.992l17.724-17.36a5.433,5.433,0,0,1,0,7.795L27.543,41.243a5.192,5.192,0,0,1-7.233,0Zm-2.169-16.3L28.628,14.673a5.713,5.713,0,0,1,7.58-.338l.016-.016,2.169,2.124-3.978,3.9L32.607,18.57,22.118,28.844Z" transform="translate(-4.556 -4.556)"/></svg>