<svg xmlns="http://www.w3.org/2000/svg" width="33" height="32.614" viewBox="0 0 33 32.614">
  <g id="Group_3162" data-name="Group 3162" transform="translate(-1555 -671)">
    <path id="Subtraction_87" data-name="Subtraction 87" d="M8015.064,5023.615h0c.753-5.2,4.174-8.813,6.922-11.717.732-.773,1.424-1.5,2-2.2a3.544,3.544,0,0,0,.958-2.969c-.361-1.887-2.519-3.086-2.54-3.1a82.774,82.774,0,0,1-7.958-3.034,12.636,12.636,0,0,0-4.889-1.061,7.957,7.957,0,0,0-4.234,1.061,7.758,7.758,0,0,0-2.368,1.69,8.5,8.5,0,0,0-2.333,6.167,25.985,25.985,0,0,1-1.7,9.735,16.494,16.494,0,1,1,16.136,5.427Z" transform="translate(-6440 -4320)" fill="#dfdfdf"/>
    <path id="Path_16650" data-name="Path 16650" d="M-9764.8-4552.471s4.2,3.442,12.393-1.929" transform="translate(11337.22 5243.9)" fill="none" stroke="#dfdfdf" stroke-linecap="round" stroke-width="1"/>
    <path id="Subtraction_88" data-name="Subtraction 88" d="M7998,4997a3,3,0,1,1,3-3A3,3,0,0,1,7998,4997Zm0-5a2,2,0,1,0,2,2A2,2,0,0,0,7998,4992Z" transform="translate(-6429 -4309)" fill="#dfdfdf"/>
    <circle id="Ellipse_243" data-name="Ellipse 243" cx="0.5" cy="0.5" r="0.5" transform="translate(1581 688)" fill="#dfdfdf"/>
  </g>
</svg>
