<svg xmlns="http://www.w3.org/2000/svg" width="33.041" height="32.479" viewBox="0 0 33.041 32.479"><defs><style>.a{fill:#dfdfdf;}</style></defs><path class="a" d="M8674.029,4102.147a16.67,16.67,0,0,0-5.225,32.45c.824.156,1.127-.359,1.127-.8,0-.4-.014-1.442-.018-2.832-4.6,1.005-5.568-2.232-5.568-2.232a4.4,4.4,0,0,0-1.836-2.437c-1.494-1.031.115-1.01.115-1.01a3.461,3.461,0,0,1,2.529,1.716,3.505,3.505,0,0,0,4.813,1.383,3.581,3.581,0,0,1,1.047-2.226c-3.666-.416-7.525-1.849-7.525-8.227a6.447,6.447,0,0,1,1.7-4.468,5.953,5.953,0,0,1,.146-4.406s1.383-.448,4.541,1.707a15.4,15.4,0,0,1,8.258,0c3.141-2.154,4.527-1.707,4.527-1.707a6.149,6.149,0,0,1,.164,4.406,6.476,6.476,0,0,1,1.691,4.468c0,6.4-3.859,7.8-7.537,8.212a4.011,4.011,0,0,1,1.115,3.083c0,2.228-.021,4.019-.021,4.558,0,.438.289.957,1.137.792a16.651,16.651,0,0,0-5.182-32.43Z" transform="translate(-8657.506 -4102.147)"/></svg>