<svg xmlns="http://www.w3.org/2000/svg" width="33" height="33" viewBox="0 0 33 33">
  <g id="Group_3163" data-name="Group 3163" transform="translate(-1509 -671)">
    <circle id="Ellipse_239" data-name="Ellipse 239" cx="16.5" cy="16.5" r="16.5" transform="translate(1509 671)" fill="#dfdfdf"/>
    <path id="coinmarketcap-1" d="M20.132,14.042a1.237,1.237,0,0,1-1.262.085,1.868,1.868,0,0,1-.717-1.722V9.827c0-1.237-.49-2.118-1.31-2.357-1.386-.405-2.42,1.292-2.82,1.93l-2.451,3.967V8.526c-.027-1.116-.39-1.785-1.077-1.985-.454-.133-1.135-.079-1.8.932l-5.479,8.8a9.682,9.682,0,0,1-1.1-4.52,9.541,9.541,0,0,1,9.455-9.612,9.554,9.554,0,0,1,9.47,9.612V11.8a2.392,2.392,0,0,1-.908,2.239Zm3.026-2.29V11.7A11.7,11.7,0,0,0,11.573,0,11.687,11.687,0,0,0,0,11.748,11.678,11.678,0,0,0,11.573,23.5a11.44,11.44,0,0,0,7.866-3.134,1.077,1.077,0,0,0,.055-1.513,1.038,1.038,0,0,0-1.47-.07,9.358,9.358,0,0,1-13.485-.629L9.47,10.227v3.658c0,1.758.681,2.327,1.253,2.493s1.446.051,2.363-1.437l2.723-4.408c.085-.142.166-.263.239-.369v2.242a3.929,3.929,0,0,0,1.815,3.6,3.328,3.328,0,0,0,3.392-.136,4.506,4.506,0,0,0,1.891-4.121Z" transform="translate(1514 676)" fill="#17181b"/>
  </g>
</svg>
