<svg xmlns="http://www.w3.org/2000/svg" width="33.001" height="33" viewBox="0 0 33.001 33"><defs><style>.a{fill:#dfdfdf;}</style></defs><g transform="translate(-1424.999 -691)"><path class="a" d="M-14532.5-8164a16.393,16.393,0,0,1-11.666-4.833A16.391,16.391,0,0,1-14549-8180.5a16.393,16.393,0,0,1,4.834-11.668A16.391,16.391,0,0,1-14532.5-8197a16.394,16.394,0,0,1,11.669,4.832A16.393,16.393,0,0,1-14516-8180.5a16.391,16.391,0,0,1-4.832,11.667A16.4,16.4,0,0,1-14532.5-8164Zm3.771-19.771h0v8.656c0,.231,0,.273-.15.427l-1.544,1.494v.317h7.492v-.317l-1.486-1.457a.442.442,0,0,1-.171-.427v-10.72a.441.441,0,0,1,.168-.423l1.525-1.46V-8188h-5.283l-3.761,9.369-4.283-9.369h-5.539v.318l1.782,2.147a.729.729,0,0,1,.241.621v8.423a.965.965,0,0,1-.256.836l-2.008,2.432v.318h5.688v-.321l-2-2.428a.978.978,0,0,1-.277-.836v-7.284l5,10.874h.577Z" transform="translate(15974 8888)"/></g></svg>