<svg xmlns="http://www.w3.org/2000/svg" width="16.875" height="16.875" viewBox="0 0 16.875 16.875"><defs><style>.a{fill:#515151;}.a,.b{fill-rule:evenodd;}.b{fill:#fff;}</style></defs><path class="a" d="M16.875,8.438A8.438,8.438,0,1,1,8.438,0a8.438,8.438,0,0,1,8.438,8.438"/><path class="b" d="M18.637,26.438a2.637,2.637,0,0,1,0-5.273,3.87,3.87,0,0,1,.669.092l3.64-3.191A.265.265,0,0,1,23.119,18h1.055a.264.264,0,0,1,.264.264v1.055a.264.264,0,0,1-.207.257l-.789.175-.037,1.2a.264.264,0,0,1-.245.255l-1.007.07.022,1a.264.264,0,0,1-.179.256l-.9.3a2.506,2.506,0,0,1,.176.962,2.64,2.64,0,0,1-2.637,2.637M17.846,23.8a.791.791,0,1,0,.771.791.791.791,0,0,0-.771-.791" transform="translate(-11.781 -13.781)"/></svg>