<svg xmlns="http://www.w3.org/2000/svg" xmlns:xlink="http://www.w3.org/1999/xlink" width="188" height="188" viewBox="0 0 188 188"><defs><style>.a{fill:url(#a);}.b{fill:#fff;}</style><linearGradient id="a" x1="0.5" x2="0.5" y2="1" gradientUnits="objectBoundingBox"><stop offset="0" stop-color="#754097"/><stop offset="1" stop-color="#3b204c"/></linearGradient></defs><g transform="translate(-0.285 -0.285)"><circle class="a" cx="94" cy="94" r="94" transform="translate(0.285 0.285)"/><path class="b" d="M42.362,101.451a.643.643,0,0,1-.07-.083q-.193-.18-.382-.369L4.487,63.576a15.32,15.32,0,0,1,0-21.667h0L41.91,4.487a15.319,15.319,0,0,1,21.666,0L15.321,52.743,52.744,90.166,101,41.91a15.319,15.319,0,0,1,0,21.666L63.125,101.451a14.683,14.683,0,0,1-20.763,0ZM36.987,56.682,65.546,28.123a15.322,15.322,0,0,1,20.637-.941l.045-.045,5.909,5.908L81.3,43.88,76.38,38.956,47.82,67.515Z" transform="translate(41.253 41.253)"/></g></svg>