<svg xmlns="http://www.w3.org/2000/svg" width="204.667" height="204.667" viewBox="0 0 204.667 204.667"><defs><style>.a,.c{fill:#fff;}.a{opacity:0.09;}.b{fill:#754097;}.d,.e,.f,.h{fill:none;}.d,.e{stroke:#754097;}.d,.e,.f{stroke-width:2px;}.e{opacity:0.45;}.f{stroke:#fff;}.g{stroke:none;}</style></defs><g transform="translate(-386 -1616)"><path class="a" d="M102.334,0A102.334,102.334,0,1,1,0,102.334,102.334,102.334,0,0,1,102.334,0Z" transform="translate(386 1616)"/><g transform="translate(-15 -77)"><g transform="translate(465.539 1756.673)"><circle class="b" cx="38.5" cy="38.5" r="38.5" transform="translate(0.461 0.327)"/><path class="c" d="M17.29,41.406a.262.262,0,0,1-.029-.034q-.079-.074-.156-.151L1.832,25.948a6.253,6.253,0,0,1,0-8.843L17.105,1.832a6.253,6.253,0,0,1,8.843,0l-19.7,19.7L21.527,36.8l19.7-19.7a6.253,6.253,0,0,1,0,8.843L25.949,41.222l-.184.184a5.993,5.993,0,0,1-8.474,0ZM15.1,23.135,26.753,11.479a6.253,6.253,0,0,1,8.423-.384l.019-.019L37.6,13.488l-4.421,4.421L31.174,15.9,19.517,27.556Z" transform="translate(16.721 16.721)"/></g><g class="d" transform="translate(451 1742)"><circle class="g" cx="53" cy="53" r="53"/><circle class="h" cx="53" cy="53" r="52"/></g><g class="e" transform="translate(425 1716)"><circle class="g" cx="79" cy="79" r="79"/><circle class="h" cx="79" cy="79" r="78"/></g><g class="f" transform="translate(438 1729)"><circle class="g" cx="66" cy="66" r="66"/><circle class="h" cx="66" cy="66" r="65"/></g><circle class="c" cx="7" cy="7" r="7" transform="translate(468 1730)"/><circle class="b" cx="7" cy="7" r="7" transform="translate(420 1779)"/><circle class="c" cx="7" cy="7" r="7" transform="translate(560 1802)"/><circle class="b" cx="7" cy="7" r="7" transform="translate(539 1854)"/><circle class="b" cx="7" cy="7" r="7" transform="translate(485 1837)"/><circle class="b" cx="7" cy="7" r="7" transform="translate(543 1724)"/></g></g></svg>