<svg xmlns="http://www.w3.org/2000/svg" xmlns:xlink="http://www.w3.org/1999/xlink" width="204.667" height="204.667" viewBox="0 0 204.667 204.667"><defs><style>.a,.f{fill:#fff;}.a{opacity:0.09;}.b{fill:url(#a);}.c{fill:url(#b);}.d,.e{fill:#754097;}.d{opacity:0.19;}.g{fill:url(#c);}.h{opacity:0.39;fill:url(#d);}</style><linearGradient id="a" x1="0.941" y1="0.437" x2="0.091" y2="0.482" gradientUnits="objectBoundingBox"><stop offset="0" stop-color="#a487b7"/><stop offset="0.523" stop-color="#42334f"/><stop offset="1" stop-color="#2c2d30"/></linearGradient><linearGradient id="b" x1="0.941" y1="0.437" x2="0.091" y2="0.482" gradientUnits="objectBoundingBox"><stop offset="0" stop-color="#9558bc"/><stop offset="0.523" stop-color="#42334f"/><stop offset="1" stop-color="#2c2d30"/></linearGradient><linearGradient id="c" x1="0.941" y1="0.437" x2="0.091" y2="0.482" gradientUnits="objectBoundingBox"><stop offset="0" stop-color="#9051b9"/><stop offset="0.523" stop-color="#42334f"/><stop offset="1" stop-color="#2c2d30"/></linearGradient><radialGradient id="d" cx="0.5" cy="0.5" r="0.5" gradientUnits="objectBoundingBox"><stop offset="0" stop-color="#fff"/><stop offset="1" stop-color="#fff" stop-opacity="0"/></radialGradient></defs><g transform="translate(-384 -1877)"><path class="a" d="M102.334,0A102.334,102.334,0,1,1,0,102.334,102.334,102.334,0,0,1,102.334,0Z" transform="translate(384 1877)"/><rect class="b" width="76.62" height="13.391" rx="6.695" transform="translate(516.432 2050.728) rotate(-45)"/><rect class="c" width="90.62" height="13.391" rx="6.695" transform="translate(399.533 1958.627) rotate(-45)"/><circle class="d" cx="60" cy="60" r="60" transform="translate(426 1919)"/><circle class="e" cx="38.5" cy="38.5" r="38.5" transform="translate(448 1941)"/><circle class="d" cx="49.5" cy="49.5" r="49.5" transform="translate(437 1930)"/><path class="f" d="M17.29,41.406a.262.262,0,0,1-.029-.034q-.079-.074-.156-.151L1.832,25.948a6.253,6.253,0,0,1,0-8.843L17.105,1.832a6.253,6.253,0,0,1,8.843,0l-19.7,19.7L21.527,36.8l19.7-19.7a6.253,6.253,0,0,1,0,8.843L25.949,41.222l-.184.184a5.993,5.993,0,0,1-8.474,0ZM15.1,23.135,26.753,11.479a6.253,6.253,0,0,1,8.423-.384l.019-.019L37.6,13.488l-4.421,4.421L31.174,15.9,19.517,27.556Z" transform="translate(464 1957)"/><rect class="g" width="76.62" height="13.391" rx="6.695" transform="translate(459.432 2068.728) rotate(-45)"/><g transform="translate(55 37)"><g transform="translate(-2.797 -2.797)"><circle class="h" cx="3.5" cy="3.5" r="3.5" transform="translate(497.797 1898.797)"/><circle class="f" cx="0.5" cy="0.5" r="0.5" transform="translate(500.797 1901.797)"/></g></g><g transform="translate(70 88)"><g transform="translate(-2.797 -2.797)"><circle class="h" cx="3.5" cy="3.5" r="3.5" transform="translate(497.797 1898.797)"/><circle class="f" cx="0.5" cy="0.5" r="0.5" transform="translate(500.797 1901.797)"/></g></g><g transform="translate(-44 143)"><g transform="translate(-2.797 -2.797)"><circle class="h" cx="3.5" cy="3.5" r="3.5" transform="translate(497.797 1898.797)"/><circle class="f" cx="0.5" cy="0.5" r="0.5" transform="translate(500.797 1901.797)"/></g></g><g transform="translate(5 -5)"><g transform="translate(-2.797 -2.797)"><circle class="h" cx="3.5" cy="3.5" r="3.5" transform="translate(497.797 1898.797)"/><circle class="f" cx="0.5" cy="0.5" r="0.5" transform="translate(500.797 1901.797)"/></g></g><g transform="translate(-91 81)"><g transform="translate(-2.797 -2.797)"><circle class="h" cx="3.5" cy="3.5" r="3.5" transform="translate(497.797 1898.797)"/><circle class="f" cx="0.5" cy="0.5" r="0.5" transform="translate(500.797 1901.797)"/></g></g></g></svg>