<svg xmlns="http://www.w3.org/2000/svg" width="204.667" height="204.667" viewBox="0 0 204.667 204.667"><defs><style>.a,.f{fill:#fff;}.a{opacity:0.09;}.b,.c,.d,.h{fill:none;}.b{stroke:#a7a7a7;}.c{stroke:#754097;}.d{stroke:#606060;}.e{fill:#754097;}.g{stroke:none;}</style></defs><g transform="translate(-380 -1766)"><path class="a" d="M102.334,0A102.334,102.334,0,1,1,0,102.334,102.334,102.334,0,0,1,102.334,0Z" transform="translate(380 1766)"/><g class="b" transform="translate(421 1807)"><circle class="g" cx="61" cy="61" r="61"/><circle class="h" cx="61" cy="61" r="60.5"/></g><g class="c" transform="translate(409 1795)"><circle class="g" cx="73" cy="73" r="73"/><circle class="h" cx="73" cy="73" r="72.5"/></g><g class="d" transform="translate(396 1782)"><circle class="g" cx="86.5" cy="86.5" r="86.5"/><circle class="h" cx="86.5" cy="86.5" r="86"/></g><g class="c" transform="translate(434 1820)"><circle class="g" cx="48.5" cy="48.5" r="48.5"/><circle class="h" cx="48.5" cy="48.5" r="48"/></g><g transform="translate(2 2.999)"><path class="e" d="M8102.449,5052.97l-18.421-13.123A45.414,45.414,0,0,1,8065,5002.854v-37.6a5.039,5.039,0,0,1,6.106-4.945,40.376,40.376,0,0,0,31.39-6.409,5.051,5.051,0,0,1,5.755,0,40.377,40.377,0,0,0,31.391,6.409,5.039,5.039,0,0,1,6.106,4.945v37.6a45.415,45.415,0,0,1-19.026,36.994L8108.3,5052.97a5.047,5.047,0,0,1-5.853,0Z" transform="translate(-7625.001 -3138)"/><g transform="translate(434.675 1825.515)"><path class="f" d="M16.534,38.661a.244.244,0,0,1-.027-.031q-.076-.069-.15-.141L1.751,24.228a5.741,5.741,0,0,1,0-8.257L16.358,1.71a6.083,6.083,0,0,1,8.456,0L5.98,20.1,20.586,34.361l18.835-18.39a5.742,5.742,0,0,1,0,8.257L24.638,38.661a5.829,5.829,0,0,1-8.1,0Zm-2.1-17.06L25.583,10.717a6.087,6.087,0,0,1,8.055-.358l.017-.017.384.375,1.921,1.877-4.228,4.128-1.922-1.877L18.664,25.729Z" transform="translate(25.325 19.485)"/></g></g></g></svg>