<svg xmlns="http://www.w3.org/2000/svg" width="33.001" height="33" viewBox="0 0 33.001 33"><defs><style>.a{fill:#dfdfdf;}</style></defs><path class="a" d="M-14532.5-8164a16.393,16.393,0,0,1-11.666-4.833A16.391,16.391,0,0,1-14549-8180.5a16.393,16.393,0,0,1,4.834-11.668A16.391,16.391,0,0,1-14532.5-8197a16.394,16.394,0,0,1,11.669,4.832A16.393,16.393,0,0,1-14516-8180.5a16.391,16.391,0,0,1-4.832,11.667A16.4,16.4,0,0,1-14532.5-8164Zm9.6-24.625a.613.613,0,0,0-.219.041l-19.732,7.536a.609.609,0,0,0-.4.573.619.619,0,0,0,.395.573l5.542,2.144v6.744a.619.619,0,0,0,.472.6.584.584,0,0,0,.139.015.612.612,0,0,0,.551-.34l2.293-4.546,5.6,4.151a.606.606,0,0,0,.363.121.614.614,0,0,0,.59-.435l2.664-8.734c2.345-7.686,2.345-7.686,2.345-7.694a.6.6,0,0,0-.12-.516A.626.626,0,0,0-14522.9-8188.625Zm-5.327,15.986h0l-4.924-3.658,8.905-9.4-3.979,13.053Zm-7.855-.964h0v-4.26l8.38-5.97-5.149,5.436c-1.705,1.8-1.705,1.8-1.713,1.812l0,.006,0,.007c-.02.023-.02.023-.42.817C-14535.217-8175.321-14535.556-8174.648-14536.084-8173.6Zm-.7-5.269h0l-4.138-1.6,13.747-5.25-9.608,6.85Z" transform="translate(14549.001 8197)"/></svg>