<svg xmlns="http://www.w3.org/2000/svg" width="31.562" height="27.435" viewBox="0 0 31.562 27.435"><defs><style>.a{fill:#dfdfdf;}</style></defs><g transform="translate(0 0)"><path class="a" d="M6840.516,4137.083a.927.927,0,0,0-1.234-1.06l-29.709,11.343a.925.925,0,0,0,0,1.728l8.346,3.224v10.153a.925.925,0,0,0,1.751.417l3.451-6.848,8.424,6.252a.928.928,0,0,0,1.437-.475c7.866-25.792,7.525-24.668,7.54-24.733Zm-7.336,3.25-14.472,10.311-6.228-2.409Zm-13.417,11.828,12.616-8.985c-10.856,11.455-10.289,10.85-10.335,10.915-.072.095.122-.275-2.281,4.492Zm11.829,7.864-7.417-5.506,13.408-14.146Z" transform="translate(-6808.976 -4135.961)"/></g></svg>