<svg xmlns="http://www.w3.org/2000/svg" width="24.679" height="24.5" viewBox="0 0 24.679 24.5">
  <g id="time-left" transform="translate(0 -1.688)">
    <g id="Layer_2_16_" transform="translate(0 1.688)">
      <g id="Group_3144" data-name="Group 3144">
        <path id="Path_16630" data-name="Path 16630" d="M254.1,423.185c-.2.051-.411.1-.617.134a.992.992,0,0,0,.361,1.951c.245-.046.492-.1.735-.16a.992.992,0,0,0-.479-1.925Z" transform="translate(-239.263 -400.796)" fill="#fff"/>
        <path id="Path_16631" data-name="Path 16631" d="M412.748,138.164a.992.992,0,0,0,1.884-.624c-.078-.237-.165-.475-.258-.706a.992.992,0,1,0-1.842.737C412.609,137.765,412.682,137.965,412.748,138.164Z" transform="translate(-390.579 -129.074)" fill="#fff"/>
        <path id="Path_16632" data-name="Path 16632" d="M321.9,394.076c-.175.116-.356.227-.538.332a.992.992,0,1,0,.991,1.719c.216-.125.431-.258.64-.4a.992.992,0,0,0-1.094-1.655Z" transform="translate(-303.845 -373.104)" fill="#fff"/>
        <path id="Path_16633" data-name="Path 16633" d="M429.618,208.265a.992.992,0,1,0-1.983.078c.008.209.01.422.005.631a.992.992,0,1,0,1.984.044C429.63,208.767,429.628,208.514,429.618,208.265Z" transform="translate(-404.948 -196.403)" fill="#fff"/>
        <path id="Path_16634" data-name="Path 16634" d="M378.776,344.267a.992.992,0,0,0-1.389.2c-.126.168-.259.334-.394.493a.992.992,0,0,0,.112,1.4c.024.02.048.039.073.056a.992.992,0,0,0,1.326-.168c.162-.19.32-.389.471-.589A.992.992,0,0,0,378.776,344.267Z" transform="translate(-356.769 -325.905)" fill="#fff"/>
        <path id="Path_16635" data-name="Path 16635" d="M415.267,279.4a.992.992,0,0,0-1.243.65c-.063.2-.132.4-.207.6a.992.992,0,0,0,1.854.706c.089-.234.172-.472.246-.71A.992.992,0,0,0,415.267,279.4Z" transform="translate(-391.802 -264.622)" fill="#fff"/>
        <path id="Path_16636" data-name="Path 16636" d="M10.5,24.219A10.244,10.244,0,0,1,7.96,23.41l-.028-.015c-.19-.089-.38-.185-.564-.286l0,0a10.583,10.583,0,0,1-.987-.617A10.353,10.353,0,0,1,6.421,5.533l.036-.025a10.37,10.37,0,0,1,11.623-.093L17.3,6.535c-.215.312-.083.539.294.5l3.367-.3a.555.555,0,0,0,.5-.725l-.9-3.258c-.1-.365-.36-.409-.576-.1L19.21,3.781a12.252,12.252,0,0,0-8.978-1.909q-.476.082-.939.2H9.286l-.036.01A12.233,12.233,0,0,0,2.467,6.63c-.014.017-.029.033-.042.052-.056.076-.112.153-.167.231C2.168,7.04,2.08,7.17,2,7.3c-.011.016-.019.032-.028.048A12.231,12.231,0,0,0,.013,14.563c0,.008,0,.017,0,.025.011.249.031.5.058.75,0,.016,0,.031.008.047.028.25.062.5.106.75a12.244,12.244,0,0,0,3.452,6.64l.013.013,0,0a12.5,12.5,0,0,0,1.581,1.321,12.232,12.232,0,0,0,4.919,2.059.992.992,0,0,0,.35-1.953Z" transform="translate(0 -1.688)" fill="#fff"/>
        <path id="Path_16637" data-name="Path 16637" d="M206.79,83.2a.8.8,0,0,0-.8.8v8l7.314,3.781a.8.8,0,0,0,.737-1.426l-6.446-3.332V84A.8.8,0,0,0,206.79,83.2Z" transform="translate(-195.059 -78.874)" fill="#fff"/>
      </g>
    </g>
  </g>
</svg>
