<svg xmlns="http://www.w3.org/2000/svg" width="44" height="44" viewBox="0 0 44 44">
  <g id="Group_2968" data-name="Group 2968" transform="translate(-856 -2253.5)">
    <g id="Group_2961" data-name="Group 2961" transform="translate(-381 1689)">
      <circle id="Ellipse_120" data-name="Ellipse 120" cx="22" cy="22" r="22" transform="translate(1237 564.5)"/>
    </g>
    <path id="Path_16564" data-name="Path 16564" d="M170.186,110.769c-1.3-.908-2.686-1.875-4.043-2.836a1.1,1.1,0,0,0-.1-.068,1.825,1.825,0,0,0-.533-.3l-.015-.008c-3.631-.878-7.322-1.778-10.893-2.648l-9.715-2.363c-.083-.022-.165-.045-.255-.068a2.481,2.481,0,0,0-.99-.128.69.69,0,0,0-.278.105l-.09.075a1.1,1.1,0,0,0-.255.405L143,103v.345l.015.053c2.048,5.739,4.148,11.56,6.174,17.194,1.56,4.336,3.181,8.83,4.764,13.241a.8.8,0,0,0,.72.525h.075a.845.845,0,0,0,.75-.413l5.941-8.664q2.172-3.162,4.343-6.331c.593-.863,1.185-1.733,1.778-2.6.975-1.425,1.98-2.9,2.978-4.328l.053-.075v-.09a1.133,1.133,0,0,0-.405-1.088m-6.962,3.158c-1.4.728-2.821,1.478-4.253,2.221l2.506-2.686c1.043-1.125,2.13-2.288,3.2-3.428l.023-.023a3.438,3.438,0,0,1,.323-.353c.083-.083.173-.165.255-.263.555.383,1.118.773,1.658,1.155q.585.416,1.193.833c-1.65.84-3.3,1.7-4.9,2.543m-3.586-.36c-1.073,1.163-2.183,2.356-3.286,3.533-2.138-2.6-4.321-5.229-6.436-7.772l-2.888-3.473-.007-.008c-.218-.248-.428-.518-.638-.773-.135-.173-.278-.338-.42-.51.87.225,1.748.435,2.611.638.758.18,1.545.368,2.318.563l13.061,3.173c-1.448,1.545-2.9,3.113-4.313,4.629m-3.773,14.621c.082-.788.173-1.6.248-2.393.068-.638.135-1.29.2-1.913.105-1,.218-2.033.308-3.046l.022-.18c.075-.645.15-1.313.2-1.98a2.253,2.253,0,0,1,.27-.128,3.489,3.489,0,0,0,.338-.165q2.6-1.362,5.206-2.716c1.733-.9,3.511-1.83,5.274-2.753-1.605,2.326-3.218,4.674-4.779,6.962-1.343,1.958-2.723,3.976-4.1,5.964-.54.8-1.1,1.605-1.635,2.386-.6.87-1.215,1.763-1.815,2.656.075-.9.165-1.808.263-2.693m-10.457-21.853c-.1-.27-.2-.548-.293-.81,2.025,2.446,4.066,4.906,6.054,7.292,1.028,1.238,2.055,2.468,3.083,3.713.2.233.405.48.6.72.255.308.51.63.788.938-.09.773-.165,1.553-.248,2.3-.053.525-.105,1.05-.165,1.583v.008c-.022.338-.068.675-.105,1.005-.053.458-.173,1.493-.173,1.493l-.007.053c-.135,1.515-.3,3.046-.458,4.531-.068.615-.128,1.245-.2,1.875-.038-.113-.083-.225-.12-.33-.113-.3-.225-.615-.33-.923l-.8-2.228q-3.815-10.611-7.629-21.222" transform="translate(723.728 2158.337)" fill="#fff"/>
  </g>
</svg>
