<svg xmlns="http://www.w3.org/2000/svg" width="32.811" height="32.806" viewBox="0 0 32.811 32.806"><defs><style>.a{fill:#dfdfdf;}</style></defs><path class="a" d="M12231.483,4096.239a16.4,16.4,0,1,0,16.4,16.4A16.406,16.406,0,0,0,12231.483,4096.239Zm9.567,13.708c.009.178.017.36.017.546a12.018,12.018,0,0,1-18.5,10.121,7.848,7.848,0,0,0,1.014.059,8.5,8.5,0,0,0,5.235-1.8,4.254,4.254,0,0,1-3.943-2.942,3.69,3.69,0,0,0,.8.074,4.128,4.128,0,0,0,1.1-.14,4.241,4.241,0,0,1-3.382-4.148v-.048a4.188,4.188,0,0,0,1.909.522,4.233,4.233,0,0,1-1.3-5.646,11.957,11.957,0,0,0,8.7,4.418,4.5,4.5,0,0,1-.1-.965,4.221,4.221,0,0,1,7.3-2.886,8.377,8.377,0,0,0,2.676-1.021,4.2,4.2,0,0,1-1.856,2.333,8.829,8.829,0,0,0,2.433-.667A8.432,8.432,0,0,1,12241.051,4109.947Z" transform="translate(-12215.077 -4096.239)"/></svg>