<svg xmlns="http://www.w3.org/2000/svg" xmlns:xlink="http://www.w3.org/1999/xlink" width="365" height="213" viewBox="0 0 365 213">
  <defs>
    <filter id="Rectangle_1890" x="32" y="30" width="297" height="171" filterUnits="userSpaceOnUse">
      <feOffset dy="3" input="SourceAlpha"/>
      <feGaussianBlur stdDeviation="3" result="blur"/>
      <feFlood flood-opacity="0.161"/>
      <feComposite operator="in" in2="blur"/>
      <feComposite in="SourceGraphic"/>
    </filter>
    <filter id="Path_16322" x="257" y="0" width="107" height="107" filterUnits="userSpaceOnUse">
      <feOffset dy="3" input="SourceAlpha"/>
      <feGaussianBlur stdDeviation="3" result="blur-2"/>
      <feFlood flood-opacity="0.2"/>
      <feComposite operator="in" in2="blur-2"/>
      <feComposite in="SourceGraphic"/>
    </filter>
    <linearGradient id="linear-gradient" x1="0.5" x2="0.5" y2="1" gradientUnits="objectBoundingBox">
      <stop offset="0" stop-color="#754097"/>
      <stop offset="1" stop-color="#3b204c"/>
    </linearGradient>
    <linearGradient id="linear-gradient-2" x1="0.935" y1="0.557" x2="0.183" y2="0.5" gradientUnits="objectBoundingBox">
      <stop offset="0" stop-color="#9767b7"/>
      <stop offset="1" stop-color="#4c345c"/>
    </linearGradient>
    <linearGradient id="linear-gradient-3" x1="0.2" y1="0.5" x2="0.953" y2="0.5" xlink:href="#linear-gradient"/>
    <linearGradient id="linear-gradient-4" x1="0.979" y1="0.584" x2="-0.012" y2="0.5" xlink:href="#linear-gradient"/>
  </defs>
  <g id="Group_2922" data-name="Group 2922" transform="translate(7470 1979)">
    <g id="Group_2888" data-name="Group 2888">
      <ellipse id="Ellipse_167" data-name="Ellipse 167" cx="182.5" cy="24.5" rx="182.5" ry="24.5" transform="translate(-7470 -1815)" fill="#040404" opacity="0.2"/>
      <g transform="matrix(1, 0, 0, 1, -7470, -1979)" filter="url(#Rectangle_1890)">
        <rect id="Rectangle_1890-2" data-name="Rectangle 1890" width="279" height="153" rx="10" transform="translate(41 36)" fill="#fff"/>
      </g>
      <g id="Path_16535" data-name="Path 16535" transform="translate(-7421.333 -1934)" fill="#fff">
        <path d="M 252.1655426025391 134.3333892822266 L 10.16798114776611 134.3333892822266 C 5.388448238372803 134.3333892822266 1.500014662742615 130.5257873535156 1.500014662742615 125.8456192016602 L 1.500014662742615 9.987753868103027 C 1.500014662742615 5.307587146759033 5.388448238372803 1.499987006187439 10.16798114776611 1.499987006187439 L 252.1655426025391 1.499987006187439 C 256.945068359375 1.499987006187439 260.8335266113281 5.307587146759033 260.8335266113281 9.987753868103027 L 260.8335266113281 125.8456192016602 C 260.8335266113281 130.5257873535156 256.945068359375 134.3333892822266 252.1655426025391 134.3333892822266 Z" stroke="none"/>
        <path d="M 10.16796875 3.000015258789063 C 6.215545654296875 3.000015258789063 3 6.134689331054688 3 9.987754821777344 L 3 125.8456115722656 C 3 129.6986846923828 6.215545654296875 132.8333587646484 10.16796875 132.8333587646484 L 252.16552734375 132.8333587646484 C 256.1179504394531 132.8333587646484 259.33349609375 129.6986846923828 259.33349609375 125.8456115722656 L 259.33349609375 9.987754821777344 C 259.33349609375 6.134689331054688 256.1179504394531 3.000015258789063 252.16552734375 3.000015258789063 L 10.16796875 3.000015258789063 M 10.16796875 1.52587890625e-05 L 252.16552734375 1.52587890625e-05 C 257.7811279296875 1.52587890625e-05 262.33349609375 4.471649169921875 262.33349609375 9.987754821777344 L 262.33349609375 125.8456115722656 C 262.33349609375 131.3617248535156 257.7811279296875 135.8333587646484 252.16552734375 135.8333587646484 L 10.16796875 135.8333587646484 C 4.5523681640625 135.8333587646484 0 131.3617248535156 0 125.8456115722656 L 0 9.987754821777344 C 0 4.471649169921875 4.5523681640625 1.52587890625e-05 10.16796875 1.52587890625e-05 Z" stroke="none" fill="#754097"/>
      </g>
      <g id="Group_2887" data-name="Group 2887" transform="translate(-7367.136 -1937.383)">
        <path id="Path_16559" data-name="Path 16559" d="M-98.783-12.4l-2.942.045q-.18,0-.213-.045a.387.387,0,0,1-.034-.2v-1.853q0-.18.045-.213a.387.387,0,0,1,.2-.034l2.942.045h5.357v-1.539a21.451,21.451,0,0,0-.157-2.987q1.482.034,2.527.157.348.034.348.225,0,.045-.135.606a10.586,10.586,0,0,0-.112,1.932v1.606h5.728l2.965-.045q.18,0,.213.045a.387.387,0,0,1,.034.2V-12.6q0,.18-.045.213a.387.387,0,0,1-.2.034l-2.965-.045H-89.99a20.558,20.558,0,0,0,8.76,8.209,6.72,6.72,0,0,0-1.123,1.662q-.281.55-.438.55a1.188,1.188,0,0,1-.483-.258,22.027,22.027,0,0,1-7.783-8.412q0,.067.079,6.21h1.19l2.83-.045q.2,0,.236.045a.306.306,0,0,1,.045.2v1.752q0,.168-.045.208a.427.427,0,0,1-.236.039l-2.83-.045h-1.146q.011,1.157.045,2.639.022,1.056.022,1.2,0,.236-.258.236h-2.134q-.258,0-.258-.236,0-.876.067-3.841h-.988l-2.83.045q-.18,0-.213-.045a.387.387,0,0,1-.034-.2V-4.234q0-.18.045-.213a.387.387,0,0,1,.2-.034l2.83.045h1.011q.079-2.942.079-5.963a22.282,22.282,0,0,1-7.244,8.165,1.2,1.2,0,0,1-.539.281q-.18,0-.438-.505A5.164,5.164,0,0,0-102.759-4a20.938,20.938,0,0,0,4.953-3.773A20.785,20.785,0,0,0-94.358-12.4ZM-64.789-1.056a20.8,20.8,0,0,0,2.156.112.715.715,0,0,0,.606-.213.987.987,0,0,0,.135-.584V-16.026H-76.109V-2.853l.045,4.189q0,.18-.056.225a.419.419,0,0,1-.213.034h-2.01a.338.338,0,0,1-.208-.039.365.365,0,0,1-.039-.219l.045-4.807v-9.7l-.045-4.852a.41.41,0,0,1,.045-.247.419.419,0,0,1,.213-.034l3.077.045h12.511l3.088-.045q.18,0,.213.056a.453.453,0,0,1,.034.225l-.045,4.919v8.052l.056,3.616v.359A2.607,2.607,0,0,1-60.072.831a5.672,5.672,0,0,1-3.2.6,1.081,1.081,0,0,1-.64-.112,1.384,1.384,0,0,1-.213-.6A5.136,5.136,0,0,0-64.789-1.056ZM-68.079-12.4q.82.674,1.842,1.617.146-1,.191-1.449.135-1.527.135-2.269a5.988,5.988,0,0,0-.056-.865,16.555,16.555,0,0,1,2.1.348q.438.09.438.247a1.9,1.9,0,0,1-.18.438,7.93,7.93,0,0,0-.281,1.752q-.247,2.224-.55,3.661.966,1.1,2,2.459a.458.458,0,0,1,.112.2.763.763,0,0,1-.135.281l-.966,1.336q-.157.2-.236.2t-.157-.135l-1.314-1.774a21.565,21.565,0,0,1-2.639,5.312q-.281.416-.416.416-.168,0-.505-.348a5.376,5.376,0,0,0-1.4-.943,17.639,17.639,0,0,0,3.313-6.368A23.739,23.739,0,0,0-69.2-10.624q-.157-.112-.157-.213a.656.656,0,0,1,.1-.247l.764-1.168q.135-.247.236-.247A.316.316,0,0,1-68.079-12.4Zm-6.031-.022q1.089.932,1.932,1.774.18-.988.281-1.977.1-1.1.1-1.729a9.351,9.351,0,0,0-.056-1.011,20.173,20.173,0,0,1,2.089.326q.438.1.438.247a.71.71,0,0,1-.135.393,8.179,8.179,0,0,0-.326,1.819,31.227,31.227,0,0,1-.64,3.818q.64.741,1.7,2.111a.555.555,0,0,1,.112.236.635.635,0,0,1-.124.27l-.943,1.336q-.157.213-.225.213t-.168-.135q-.752-1.078-1.112-1.55A23.106,23.106,0,0,1-73.6-1.449q-.27.416-.4.416t-.483-.326A4.912,4.912,0,0,0-75.9-2.37a17.287,17.287,0,0,0,3.1-5.862,29.856,29.856,0,0,0-2.482-2.482q-.135-.135-.135-.213a.723.723,0,0,1,.112-.247l.775-1.146q.135-.213.225-.213A.348.348,0,0,1-74.11-12.421Zm37.835-4.211h-8.209q-.382,1.213-.876,2.392h6.648V-3.908h-2v-8.378H-51.357v8.378h-1.977V-14.24h5.626q.472-1.112.876-2.392h-8.939v-1.954h19.5Zm-8.715,8.378a10.941,10.941,0,0,1-.736,4.5A6.96,6.96,0,0,1-48.74-.876a22.914,22.914,0,0,1-6.345,2.19L-56.051-.6a24.367,24.367,0,0,0,5.379-1.572,6.481,6.481,0,0,0,2.9-2.179A7.112,7.112,0,0,0-46.988-8.1v-3.246h2Zm9.13,7.929-1.1,1.662a50.7,50.7,0,0,0-8.277-4.009l1.146-1.606A49.318,49.318,0,0,1-35.859-.326Zm6.648-15.363-3.032.045a.355.355,0,0,1-.225-.045.387.387,0,0,1-.034-.2v-1.887q0-.18.056-.225a.351.351,0,0,1,.2-.034l3.032.045h12.488l3.043-.045q.18,0,.213.045a.419.419,0,0,1,.034.213v1.887q0,.18-.045.213a.387.387,0,0,1-.2.034l-3.043-.045h-4.458v5.436h3.2l2.808-.045q.225,0,.225.247v1.875q0,.247-.225.247l-2.808-.045h-3.2v6.154H-15.8l2.875-.045q.236,0,.236.258v1.9q0,.258-.236.258L-15.8.505H-30.176L-33.029.55q-.225,0-.225-.258v-1.9q0-.258.225-.258l2.853.045h.348v-6.66a25.955,25.955,0,0,0-.18-3.5q1.606.045,2.639.168.393.034.393.27a1.161,1.161,0,0,1-.168.505A10.647,10.647,0,0,0-27.3-8.524v6.7h3.571v-13.87ZM-10.9-6.772A18.656,18.656,0,0,0-7.064-9.815q-.034-.55-.135-1.4,1.292.067,1.336.079a15.428,15.428,0,0,0,1.651-2.65h-2.7l-2.92.045q-.18,0-.213-.045a.387.387,0,0,1-.034-.2v-1.752q0-.191.045-.225a.387.387,0,0,1,.2-.034l2.92.045h3.616q.191-.584.438-1.471a7.425,7.425,0,0,0,.247-1.864q1.336.157,2.415.371.393.09.393.371a.727.727,0,0,1-.2.427,2.4,2.4,0,0,0-.416.9q-.112.438-.393,1.269H6.94L9.838-16a.355.355,0,0,1,.225.045.419.419,0,0,1,.034.213v1.752q0,.18-.045.213a.419.419,0,0,1-.213.034l-2.9-.045h-8.6a19.532,19.532,0,0,1-3.01,4.762q-.011.18-.011.359l.011.887V-1.5l.045,3.01q0,.18-.045.213a.387.387,0,0,1-.2.034H-6.817q-.18,0-.213-.045a.387.387,0,0,1-.034-.2l.045-3.01V-6.66Q-7.85-5.941-8.7-5.334a1.384,1.384,0,0,1-.573.326q-.18,0-.483-.46A4.916,4.916,0,0,0-10.9-6.772ZM-.416.876-3.549.921q-.18,0-.213-.045A.387.387,0,0,1-3.8.674V-1.089A.338.338,0,0,1-3.757-1.3a.338.338,0,0,1,.208-.039l3.133.045H1.7V-6.233H.4l-2.942.045q-.18,0-.213-.045a.387.387,0,0,1-.034-.2V-8.142q0-.18.045-.213a.387.387,0,0,1,.2-.034L.4-8.344H1.7v-.674a30.491,30.491,0,0,0-.157-3.47,24.113,24.113,0,0,1,2.437.168q.371.034.371.225a1.771,1.771,0,0,1-.135.483,11.114,11.114,0,0,0-.146,2.549v.719H5.694l2.954-.045q.18,0,.213.045a.387.387,0,0,1,.034.2v1.707a.338.338,0,0,1-.039.208.338.338,0,0,1-.208.039L5.694-6.233H4.065v4.941H6.682l3.133-.045q.225,0,.225.247V.674q0,.247-.225.247L6.682.876Zm20.5-13.432a13.152,13.152,0,0,0,1.067-1.089H21.1l-2.493-.045H17q-.067,2.381-.067,2.493h2.257l1.37-.045a.248.248,0,0,1,.281.281q-.022.326-.067,2.482-.034,6.143-.651,8.086a2.267,2.267,0,0,1-2.381,1.774q-.651,0-.966-.022t-.371-.124A1.382,1.382,0,0,1,16.3.741a5.241,5.241,0,0,0-.539-1.752,10.639,10.639,0,0,0,1.5.135.753.753,0,0,0,.7-.292,3.288,3.288,0,0,0,.314-1,52.668,52.668,0,0,0,.337-6.94H16.846a33.115,33.115,0,0,1-.854,5.975,15.252,15.252,0,0,1-1.707,4.144q-.225.393-.4.393-.157,0-.393-.371A5.276,5.276,0,0,0,12.2-.438a13.544,13.544,0,0,0,2.235-6.053,62.359,62.359,0,0,0,.382-7.2q-.842.011-1.5.034l-.472.011q-.157,0-.191-.056a.419.419,0,0,1-.034-.213V-15.6q0-.247.225-.247l2.516.045H16.3V-16.98a10.639,10.639,0,0,0-.168-2.224q1.527.034,2.415.112.416.034.416.258a1.247,1.247,0,0,1-.157.427,4.237,4.237,0,0,0-.146,1.426V-15.8l2.471-.045q.18,0,.213.045a.387.387,0,0,1,.034.2v1.707a12.135,12.135,0,0,0,2.089-3.953,5.411,5.411,0,0,0,.326-1.5q1.426.225,2.033.371.393.124.393.281a.524.524,0,0,1-.146.292,3.086,3.086,0,0,0-.438.921l-.46,1.247H30.5l2.628-.045q.18,0,.213.045a.387.387,0,0,1,.034.2v1.685q0,.18-.045.213a.387.387,0,0,1-.2.034L30.5-14.15H24.134a13.005,13.005,0,0,1-1.2,1.707q1.067.045,1.707.112.371,0,.371.213a1.1,1.1,0,0,1-.124.416,4.536,4.536,0,0,0-.112,1.359v.831l1.617-.416v-.191a29.557,29.557,0,0,0-.135-3.268,18.116,18.116,0,0,1,2.111.157q.348.034.348.258a3.327,3.327,0,0,1-.124.46,8.336,8.336,0,0,0-.135,2.055l1.359-.348q1.134-.3,2.123-.606.6-.191.651-.2h.045q.146,0,.146.236-.011.168-.022.573-.011.46-.022.685a32.925,32.925,0,0,1-.46,5.2,1.728,1.728,0,0,1-1.4,1.336,3.154,3.154,0,0,1-.685.056q-.247,0-.539-.011-.27,0-.337-.1a.9.9,0,0,1-.067-.382A4.268,4.268,0,0,0,28.806-5.6a5.168,5.168,0,0,0,1.056.112.529.529,0,0,0,.573-.483,24.425,24.425,0,0,0,.258-3.088l-2.235.606v2.987L28.5-2.8q0,.168-.045.208a.427.427,0,0,1-.236.039H26.594q-.247,0-.247-.3l.045-2.617V-7.929l-1.617.416v5.076q0,1.213.3,1.426a7.042,7.042,0,0,0,2.662.281,20.638,20.638,0,0,0,2.392-.09,1.5,1.5,0,0,0,.831-.3,1.321,1.321,0,0,0,.438-.786,9.654,9.654,0,0,0,.112-1.651,5.8,5.8,0,0,0,1.561.6,1.766,1.766,0,0,1,.46.191.378.378,0,0,1,.09.292q0,.09-.022.326a5.014,5.014,0,0,1-.494,2.1,3.028,3.028,0,0,1-.809.82q-.854.64-4.852.64a23.317,23.317,0,0,1-2.8-.112A2.893,2.893,0,0,1,23.46.9a1.535,1.535,0,0,1-.6-.73,3.844,3.844,0,0,1-.18-1.336V-6.963q-.438.124-.786.236-.225.079-.247.09a.778.778,0,0,1-.157.022q-.135,0-.213-.258l-.393-1.494a.476.476,0,0,1-.022-.112q0-.09.2-.146.449-.067,1.617-.337v-1.089q0-1.359-.067-1.977l-.483.528q-.348.348-.483.348t-.46-.46A4.576,4.576,0,0,0,20.08-12.556ZM39-.3l-2.9.045q-.18,0-.213-.045a.387.387,0,0,1-.034-.2V-2.437q0-.191.045-.225a.387.387,0,0,1,.2-.034L39-2.65h5.548v-11.9H40.508L37.4-14.51q-.18,0-.213-.045a.387.387,0,0,1-.034-.2V-16.7q0-.18.045-.213a.387.387,0,0,1,.2-.034l3.111.045H51.537l3.088-.045q.18,0,.213.045a.387.387,0,0,1,.034.2v1.943q0,.18-.045.213a.387.387,0,0,1-.2.034l-3.088-.045H47.146v11.9h5.862l2.9-.045a.355.355,0,0,1,.225.045.419.419,0,0,1,.034.213V-.505a.338.338,0,0,1-.039.208.365.365,0,0,1-.219.039L53.008-.3ZM67.136-14.33a58.337,58.337,0,0,1-5.11,8.3,26.58,26.58,0,0,0,4.167-1.4l.371,1.887A63.829,63.829,0,0,1,59.78-3.38l-.674-1.8a45.947,45.947,0,0,0,3.684-5.357q-.988.225-3.178.64l-.505-1.741a36.917,36.917,0,0,0,3.886-7.322l1.842.719A41.862,41.862,0,0,1,61.5-12.118a16.983,16.983,0,0,0,2.561-.606q.64-1.044,1.381-2.5ZM79.141.135H69.573V1.1H67.6V-9.658q-.472.719-.809,1.146l-1.123-1.819A25.687,25.687,0,0,0,69.3-18.9l1.932.314a26.705,26.705,0,0,1-1.067,3.448h2.583a15.727,15.727,0,0,0-.9-3.145l1.842-.618a29.223,29.223,0,0,1,1.078,3.762h4.122v1.864H74.525v2.628h4.088V-8.8H74.525v2.617h4.088v1.8H74.525v2.684h4.616ZM72.56-10.646v-2.628H69.573v2.628Zm0,4.458V-8.8H69.573v2.617Zm0,4.481V-4.391H69.573v2.684Zm-5.582-.112A56.85,56.85,0,0,1,59.544.831L58.9-.988a58.485,58.485,0,0,0,7.614-2.7Zm34.657-15.655a43.12,43.12,0,0,1-9.7,1.718v1.887h9.658v6.716l-9.7.045q-.371,5.716-2.808,8.625L87.586.326a13.563,13.563,0,0,0,2.392-8.333V-17.6a41.919,41.919,0,0,0,10.6-1.583Zm-2.089,5.537H91.933v2.92h7.614ZM89.3-8.3q-1.213.674-2.2,1.1V-.708q0,1.875-2.785,1.875a8.69,8.69,0,0,1-1.1-.067L82.611-.831q.483.034.943.034a3.633,3.633,0,0,0,1.381-.146.462.462,0,0,0,.236-.416V-6.39q-1.247.539-2.605.988l-.55-1.909,3.156-1.224V-13.3H82.061v-1.954h3.111v-3.684H87.1v3.684h2.2V-13.3H87.1v3.863q.606-.225,1.819-.82Z" transform="translate(78.136 77.383)" fill="#191919"/>
        <path id="Path_16560" data-name="Path 16560" d="M-50.258-2.461q0,.109-.1.109h-.622a.1.1,0,0,1-.109-.109v-.588h-2.181v1.9l.027,2q0,.116-.109.116h-.636q-.109,0-.109-.116l.027-1.982V-3.049h-1.982v.67q0,.116-.144.116h-.561q-.109,0-.109-.116l.027-2.939V-6.959l-.027-2.092a.1.1,0,0,1,.109-.109l1.791.034h.9v-.588a11.9,11.9,0,0,0-.109-1.907q.561.021.909.068.15.027.15.116a.994.994,0,0,1-.068.253,6.582,6.582,0,0,0-.082,1.436v.622h1.107l1.791-.034q.1,0,.1.109l-.014,1.873v1.8Zm-.827-1.3V-5.811h-2.181V-3.76Zm0-2.748V-8.4h-2.181v1.894Zm-2.98,2.748V-5.811h-1.982V-3.76Zm0-2.748V-8.4h-1.982v1.894Zm-3.151,2.283a1.548,1.548,0,0,0-.4.52.163.163,0,0,1-.144.109.339.339,0,0,1-.178-.1,7.674,7.674,0,0,1-1.374-1.477V-1l.027,1.914q0,.1-.109.1h-.636q-.109,0-.109-.1L-60.115-1V-4.73a18.5,18.5,0,0,1-1.75,1.668.374.374,0,0,1-.212.109q-.082,0-.123-.137a2.04,2.04,0,0,0-.335-.581,11.276,11.276,0,0,0,3.965-4.8H-60.5l-1.4.027a.1.1,0,0,1-.109-.109V-9.14q0-.116.109-.116l1.4.027h.376v-.793a8,8,0,0,0-.109-1.586q.472.021.923.082.185.027.185.116a.883.883,0,0,1-.082.28,3.181,3.181,0,0,0-.1,1.08v.82h.868a.718.718,0,0,0,.253-.041.683.683,0,0,1,.123-.055q.109,0,.39.267.226.226.226.321a.257.257,0,0,1-.123.212.979.979,0,0,0-.267.39,14.937,14.937,0,0,1-1.271,2.174A7.64,7.64,0,0,0-57.217-4.225ZM-37.03-7.2a1.6,1.6,0,0,0-.349.52q-.1.246-.2.246a.983.983,0,0,1-.2-.041,8.99,8.99,0,0,1-2.536-1,5.645,5.645,0,0,1-1.716-1.634A4.146,4.146,0,0,1-43.866-7.26a11.083,11.083,0,0,1-2.276.848,1.455,1.455,0,0,1-.205.034q-.109,0-.205-.232a1.05,1.05,0,0,0-.349-.444,10.489,10.489,0,0,0,2.639-.868,3.309,3.309,0,0,0,1.436-1.4h-1.791L-46.58-9.3q-.123,0-.123-.109V-9.98q0-.1.123-.1l1.962.027h2.058l.068-.417a6.619,6.619,0,0,0,.041-.731,3.57,3.57,0,0,0-.027-.479,6.152,6.152,0,0,1,.854.1q.212.041.212.137a1.415,1.415,0,0,1-.116.253,4.166,4.166,0,0,0-.123.7l-.082.438h2.488l1.948-.027q.123,0,.123.1v.574q0,.109-.123.109l-1.948-.027h-2.1A4.887,4.887,0,0,0-39.3-7.841,13.257,13.257,0,0,0-37.03-7.2Zm1.162,1.839q0,.109-.1.109L-37.8-5.277h-.226v3.206l.014,1.723a2.092,2.092,0,0,1-.082.684A.861.861,0,0,1-38.377.7,2.786,2.786,0,0,1-39.84.937h-.267A.457.457,0,0,1-40.339.9a.465.465,0,0,1-.068-.191,1.973,1.973,0,0,0-.26-.656q.793.068,1.148.068a.782.782,0,0,0,.526-.13.546.546,0,0,0,.13-.41v-4.86H-46.2l-1.825.027a.1.1,0,0,1-.109-.109v-.608a.1.1,0,0,1,.109-.109l1.825.027h8.4l1.832-.027q.1,0,.1.109Zm-5.3,4.813q0,.123-.116.123h-.6Q-42-.424-42-.547v-.492h-2.9V-.28q0,.109-.116.109h-.6a.1.1,0,0,1-.109-.109l.027-1.935v-.738l-.027-1.107a.1.1,0,0,1,.109-.109l1.4.027h1.524l1.4-.027q.116,0,.116.109l-.034.9v.8ZM-42-1.736V-3.445h-2.9v1.709ZM-29.285.075a.1.1,0,0,1-.109.109H-30a.1.1,0,0,1-.109-.109v-.8H-32.8V.383a.1.1,0,0,1-.109.109h-.608a.1.1,0,0,1-.109-.109l.027-4.02v-2.4l-.027-3.056a.1.1,0,0,1,.109-.109l1.237.034a16,16,0,0,0,.52-1.627,3.4,3.4,0,0,0,.1-.813,5.006,5.006,0,0,1,.909.212q.15.041.15.15a.271.271,0,0,1-.1.185.975.975,0,0,0-.226.4q-.321.937-.547,1.49h.718l1.36-.034a.1.1,0,0,1,.109.109l-.027,2.707v2.577Zm-.827-1.545V-4.676H-32.8V-1.47Zm0-3.951V-8.442H-32.8v3.021Zm7.978-3.568q-.027.355-.027,1.053a42.856,42.856,0,0,1-.451,6.829A3.367,3.367,0,0,1-23.208.52,1.421,1.421,0,0,1-24.343,1q-.588,0-1.333-.068-.2-.021-.232-.068a.751.751,0,0,1-.075-.253,2.021,2.021,0,0,0-.239-.643A11.165,11.165,0,0,0-24.555.15h.157q.711,0,.978-1.565a45.4,45.4,0,0,0,.4-6.9h-4.1a13.941,13.941,0,0,1-1.121,1.873q-.123.171-.178.171t-.212-.137a1.742,1.742,0,0,0-.458-.342,12.4,12.4,0,0,0,1.969-3.623,5.154,5.154,0,0,0,.267-1.251,6.744,6.744,0,0,1,.868.253q.212.082.212.185a.367.367,0,0,1-.157.253,2.346,2.346,0,0,0-.321.656q-.205.533-.5,1.189h2.967l1.524-.027A.109.109,0,0,1-22.135-8.989Zm-2.782,5.407a.258.258,0,0,1,.027.089q0,.055-.144.15l-.4.294a.477.477,0,0,1-.144.068q-.034,0-.068-.068a11.251,11.251,0,0,0-1.764-2.693.142.142,0,0,1-.041-.068q0-.041.144-.137l.349-.226a.239.239,0,0,1,.123-.068q.027,0,.075.055A10.354,10.354,0,0,1-24.917-3.582Zm17.124.376q0,.109-.1.109L-8.073-3.1q-.533-.014-1.2-.021v.9l.034,1.265q0,.109-.116.109h-.615a.1.1,0,0,1-.109-.109V-1.4H-13.6l.014,1.025a2.005,2.005,0,0,1-.1.718.782.782,0,0,1-.294.342,4.308,4.308,0,0,1-1.894.253.411.411,0,0,1-.253-.048.736.736,0,0,1-.1-.219,2.774,2.774,0,0,0-.342-.629,8.522,8.522,0,0,0,.93.062Q-15.5.1-15.326.1a1.255,1.255,0,0,0,.752-.144.713.713,0,0,0,.144-.526V-1.4h-2.406l-1.976.027q-.116,0-.116-.109v-.492q0-.109.116-.109l1.976.027h2.406V-3.124h-3.849l-1.812.027a.1.1,0,0,1-.109-.109V-3.7a.1.1,0,0,1,.109-.109l1.812.027h3.849v-.984h-2.406l-1.976.027q-.116,0-.116-.1v-.506q0-.109.116-.109l1.976.027h2.406v-.95h-1.853l-1.976.027q-.109,0-.109-.123l.027-.772v-.588l-.027-.772a.1.1,0,0,1,.109-.109l1.976.027h1.853V-9.55h-3.753l-1.832.027q-.116,0-.116-.109v-.52q0-.109.116-.109l1.832.027h3.753a6.935,6.935,0,0,0-.1-1.456,6.54,6.54,0,0,1,.909.068q.171.027.171.116a.905.905,0,0,1-.082.267,3.843,3.843,0,0,0-.068.978v.027h3.746l1.839-.027a.1.1,0,0,1,.109.109v.52a.1.1,0,0,1-.109.109L-9.857-9.55H-13.6v.868h1.9l1.989-.027A.1.1,0,0,1-9.6-8.6l-.027.772v.588l.027.772q0,.123-.109.123L-11.7-6.371h-1.9v.95h2.249l2.01-.027a.1.1,0,0,1,.109.109L-9.27-4.088v.308L-7.9-3.808q.1,0,.1.109Zm-2.283,1.148V-3.124H-13.6v1.066Zm0-1.723v-.984H-13.6v.984ZM-10.4-6.986v-1.08H-13.6v1.08Zm-4.033,0v-1.08h-3.138v1.08ZM4.929-5.325,4.9-3.685v1.5L4.915-.308a1.126,1.126,0,0,1-.294.923A2.175,2.175,0,0,1,3.4.868H3.233a.487.487,0,0,1-.26-.041.725.725,0,0,1-.1-.239A1.673,1.673,0,0,0,2.577.041q.479.041.95.041A.683.683,0,0,0,4.04-.055a.673.673,0,0,0,.075-.376v-1H-.458V-.9L-.431.882q0,.1-.116.1h-.615q-.109,0-.109-.1l.027-1.75V-3.753l-.027-1.572a.1.1,0,0,1,.109-.109l1.935.027H3.179l1.641-.027A.1.1,0,0,1,4.929-5.325Zm-.813,3.24v-1H-.458v1Zm0-1.654v-1H-.458v1Zm2.1-2.591a.085.085,0,0,1-.1.1L4.211-6.262H-.055l-1.907.027q-.109,0-.109-.1v-.506a.1.1,0,0,1,.109-.109l1.907.027H1.374v-1H.417l-1.675.034A.1.1,0,0,1-1.374-8v-.458a.1.1,0,0,1,.116-.116l1.675.027h.957v-.937H.2l-1.791.027q-.116,0-.116-.109v-.492q0-.109.116-.109L.2-10.138H1.374a9.291,9.291,0,0,0-.1-1.538,7.56,7.56,0,0,1,.9.068q.171.021.171.123a.773.773,0,0,1-.082.28,3.658,3.658,0,0,0-.089,1.066H3.78l1.8-.027q.116,0,.116.109v.492q0,.109-.116.109l-1.8-.027H2.167v.937H3.391l1.661-.027q.13,0,.13.116V-8q0,.116-.13.116L3.391-7.916H2.167v1H4.211l1.907-.027q.1,0,.1.109Zm-9.721-5.079a2,2,0,0,1-.055.253,5.9,5.9,0,0,0-.1,1.442v8.135L-3.637.882a.1.1,0,0,1-.109.109h-.663A.1.1,0,0,1-4.519.882l.027-2.447V-9.687A12.174,12.174,0,0,0-4.6-11.607a8.368,8.368,0,0,1,.923.082Q-3.507-11.5-3.507-11.409ZM-5.065-8.3a10.1,10.1,0,0,1-.588,2.871q-.034.068-.075.068a.523.523,0,0,1-.137-.048L-6.2-5.544q-.185-.075-.185-.116a.447.447,0,0,1,.027-.109A8.559,8.559,0,0,0-5.8-8.483q0-.082.062-.082a.882.882,0,0,1,.15.027l.362.082q.157.041.157.109V-8.3Zm2.939,1.436a.411.411,0,0,1,.007.062q0,.068-.15.123l-.335.109a.671.671,0,0,1-.164.041q-.062,0-.075-.082a8.68,8.68,0,0,0-.5-1.928.207.207,0,0,1-.021-.075q0-.055.171-.109l.321-.1a.4.4,0,0,1,.1-.021.088.088,0,0,1,.082.062A13.041,13.041,0,0,1-2.126-6.863ZM13.576-4.5a.1.1,0,0,1-.109.109L12-4.423h-.431v2.1L11.6-.376a1.156,1.156,0,0,1-.376,1A2.734,2.734,0,0,1,9.837.854a.465.465,0,0,1-.26-.041A.751.751,0,0,1,9.5.561a1.588,1.588,0,0,0-.239-.574,7.742,7.742,0,0,0,.854.055.854.854,0,0,0,.554-.123.61.61,0,0,0,.1-.41V-4.423h-.479L8.825-4.4A.1.1,0,0,1,8.716-4.5l.027-1.053V-6.576L8.716-7.629a.1.1,0,0,1,.109-.109l1.47.027H12l1.463-.027a.1.1,0,0,1,.109.109l-.027,1.053v1.019Zm-.8-.588V-7.027H9.516v1.935Zm7.41-2.071q0,.109-.116.109l-1.661-.027H16.953A18.664,18.664,0,0,1,16.3-3.459,8.16,8.16,0,0,1,13.426.759a.456.456,0,0,1-.212.123q-.041,0-.2-.157a1.666,1.666,0,0,0-.492-.4,7.422,7.422,0,0,0,3.1-4.238,15.093,15.093,0,0,0,.533-3.165H16.01l-1.675.027q-.116,0-.116-.109v-.581q0-.109.116-.109l1.675.027h.2q.055-.848.055-1.962a11.561,11.561,0,0,0-.1-1.647,7.835,7.835,0,0,1,.9.082q.185.021.185.15a.877.877,0,0,1-.082.294,3.7,3.7,0,0,0-.089,1.066q0,.882-.068,2.017h1.4l1.661-.027q.116,0,.116.109Zm.321,6A2.558,2.558,0,0,1,20.029.369a1.925,1.925,0,0,1-1.367.417A2.444,2.444,0,0,1,17.555.615Q17.09.376,17.09-.492V-4.211a12.734,12.734,0,0,0-.082-1.654,7.587,7.587,0,0,1,.827.082q.164.027.164.13a.53.53,0,0,1-.068.219,5.474,5.474,0,0,0-.068,1.224V-.759q0,.506.171.636A1.2,1.2,0,0,0,18.676,0a1.089,1.089,0,0,0,.854-.294,3.964,3.964,0,0,0,.28-1.5,1.913,1.913,0,0,0,.472.267q.232.1.232.239Q20.515-1.251,20.508-1.162ZM14.4-8.955q0,.1-.109.1L12.51-8.887H9.741l-1.777.027q-.1,0-.1-.1v-.588q0-.116.1-.116l1.777.034h1v-.506a6.931,6.931,0,0,0-.1-1.415q.335.014.9.068.171.027.171.13a.89.89,0,0,1-.082.246,3.511,3.511,0,0,0-.075.971v.506h.95l1.784-.034q.109,0,.109.116ZM9.953-3.11a.3.3,0,0,1-.109.185,1.456,1.456,0,0,0-.2.4A8.881,8.881,0,0,1,8.593-.41q-.123.185-.185.185A.4.4,0,0,1,8.23-.308a1.5,1.5,0,0,0-.506-.239A7.463,7.463,0,0,0,8.9-2.741a2.974,2.974,0,0,0,.144-.731,5.921,5.921,0,0,1,.752.212Q9.953-3.22,9.953-3.11Zm9.81-6.125a.182.182,0,0,1,.034.082q0,.048-.157.164L19.3-8.75a.318.318,0,0,1-.137.062q-.041,0-.075-.062a5.2,5.2,0,0,0-1.121-1.62.174.174,0,0,1-.041-.075q0-.041.123-.137l.294-.212a.284.284,0,0,1,.123-.048.133.133,0,0,1,.089.048A6.405,6.405,0,0,1,19.763-9.235ZM13.829-1.921a.258.258,0,0,1,.027.089q0,.062-.123.123l-.328.157a.47.47,0,0,1-.164.055q-.055,0-.082-.089a8.476,8.476,0,0,0-.786-1.565.148.148,0,0,1-.034-.075q0-.062.144-.137l.28-.137a.368.368,0,0,1,.123-.041q.048,0,.1.082A8.906,8.906,0,0,1,13.829-1.921Zm20.207-8.367a.1.1,0,0,1-.109.109l-1.853-.027H29.75v1.374h.95l2.01-.027a.1.1,0,0,1,.109.109l-.027,1.025v.964l.027,1.019a.1.1,0,0,1-.109.109L30.7-5.66H25.3l-2.017.027a.1.1,0,0,1-.109-.109L23.2-6.761v-.964L23.174-8.75a.1.1,0,0,1,.109-.109l2.017.027h.772v-1.374h-2.1l-1.846.027q-.116,0-.116-.109v-.595q0-.109.116-.109l1.846.027h8.1l1.853-.027a.1.1,0,0,1,.109.109ZM31.979-6.316V-8.176H29.75v1.859Zm-3.015,0V-8.176H26.858v1.859Zm-2.892,0V-8.176H24.015v1.859Zm2.892-2.516v-1.374H26.858v1.374Zm5.257,5.325q0,.109-.116.109l-1.791-.027H30.762A7.088,7.088,0,0,1,29.306-1.34q1.429.485,3.664,1.5.075.034.075.075a.316.316,0,0,1-.075.15l-.28.39q-.137.185-.171.185A.168.168,0,0,1,32.443.93a25.082,25.082,0,0,0-3.78-1.709,11.507,11.507,0,0,1-5.8,1.764l-.109.007a.244.244,0,0,1-.178-.055A1.153,1.153,0,0,1,22.47.731,1.436,1.436,0,0,0,22.135.26a12.215,12.215,0,0,0,5.544-1.347q-1.312-.355-2.461-.574-.123.164-.321.39a.268.268,0,0,1-.191.089.608.608,0,0,1-.116-.014l-.479-.116q-.1-.014-.1-.1,0-.041.137-.185.3-.328.643-.779.342-.424.772-1.053H23.693L21.9-3.4a.1.1,0,0,1-.109-.109v-.581A.1.1,0,0,1,21.9-4.2l1.8.027h2.352l.178-.308A4.793,4.793,0,0,0,26.729-5.6a3.968,3.968,0,0,1,.841.226q.15.055.15.15t-.137.185a2,2,0,0,0-.465.6l-.164.267h5.359L34.1-4.2q.116,0,.116.109Zm-4.409.082H26.476q-.485.759-.786,1.148,1.511.3,2.721.656A5.852,5.852,0,0,0,29.812-3.425ZM48.405-.492a1.868,1.868,0,0,0-.437.547q-.116.212-.185.212A.812.812,0,0,1,47.578.2a15.216,15.216,0,0,1-3.254-1.962A9.9,9.9,0,0,1,42.273-4.1q.007,1.49.041,3.384.027,1.442.027,1.627,0,.1-.116.1h-.684q-.109,0-.109-.1,0-.164.027-1.982.034-1.627.041-2.987a11.33,11.33,0,0,1-2.276,2.55,14.749,14.749,0,0,1-2.666,1.7.713.713,0,0,1-.226.082q-.062,0-.185-.2a1.741,1.741,0,0,0-.4-.5,11.766,11.766,0,0,0,5.2-4.061H38.028l-1.866.027q-.109,0-.109-.123v-.581a.1.1,0,0,1,.109-.109l1.866.027h3.445V-8.736H38.842l-1.948.027a.1.1,0,0,1-.109-.109v-.608a.1.1,0,0,1,.109-.109l1.948.027h2.632v-.506a9.092,9.092,0,0,0-.1-1.606,6.382,6.382,0,0,1,.93.068q.171.021.171.109a.454.454,0,0,1-.041.178l-.048.144a5.759,5.759,0,0,0-.068,1.107v.506H45.2l1.941-.027q.116,0,.116.109v.608q0,.109-.116.109L45.2-8.736H42.314V-5.25H43.49a18.755,18.755,0,0,0,1.121-2.085,3.18,3.18,0,0,0,.246-.8,6.343,6.343,0,0,1,.841.267q.157.068.157.171a.213.213,0,0,1-.13.178,1.587,1.587,0,0,0-.4.588,17.058,17.058,0,0,1-.978,1.682h1.62l1.866-.027a.1.1,0,0,1,.109.109v.581q0,.123-.109.123l-1.866-.027H42.786A11.946,11.946,0,0,0,48.405-.492ZM39.874-6.118a.158.158,0,0,1,.014.055q0,.055-.13.116l-.458.191a.53.53,0,0,1-.157.048q-.048,0-.082-.089a10.814,10.814,0,0,0-.95-1.948.148.148,0,0,1-.034-.075q0-.048.144-.1l.438-.171a.375.375,0,0,1,.109-.034q.041,0,.082.062A11.194,11.194,0,0,1,39.874-6.118Zm21.615-4a.23.23,0,0,1-.157.232,2.483,2.483,0,0,0-.479.321,25.942,25.942,0,0,1-4.129,2.98v3.938l.027,1.764a1.871,1.871,0,0,1-.137.8,1.345,1.345,0,0,1-.308.376,1.752,1.752,0,0,1-1,.335q-.4.041-1.5.041a.507.507,0,0,1-.267-.041A.874.874,0,0,1,53.45.376a1.693,1.693,0,0,0-.294-.684q.67.068,1.894.068.772,0,.772-.854v-4.45a10.971,10.971,0,0,0-.13-2q.157.027.827.1a22.235,22.235,0,0,0,3.445-2.488H53.047l-1.935.027q-.109,0-.109-.123V-10.7a.1.1,0,0,1,.109-.109l1.935.027h7.164a.969.969,0,0,0,.383-.055.322.322,0,0,1,.137-.041q.123,0,.417.294Q61.489-10.247,61.489-10.117Z" transform="translate(78.136 102.383)"/>
      </g>
      <path id="Subtraction_47" data-name="Subtraction 47" d="M361.522,232.826H208.374l55.118-153h98.03a10.011,10.011,0,0,1,10,10v133A10.012,10.012,0,0,1,361.522,232.826Z" transform="translate(-7521.521 -2022.825)" fill="#241a1a" opacity="0.05"/>
      <g id="Group_2886" data-name="Group 2886" transform="translate(-21113 -9581)">
        <g id="Group_2294" data-name="Group 2294" transform="translate(13909 7608)">
          <g id="Group_2241" data-name="Group 2241">
            <g transform="matrix(1, 0, 0, 1, -266, -6)" filter="url(#Path_16322)">
              <path id="Path_16322-2" data-name="Path 16322" d="M44.5,0A44.5,44.5,0,1,1,0,44.5,44.5,44.5,0,0,1,44.5,0Z" transform="translate(266 6)" fill="#fff"/>
            </g>
          </g>
          <g id="Group_2242" data-name="Group 2242" transform="translate(16.616 16.718)">
            <rect id="Rectangle_1457" data-name="Rectangle 1457" width="3.249" height="7.147" transform="translate(43.647 16.08) rotate(45)" fill="url(#linear-gradient)"/>
            <path id="Rectangle_1453" data-name="Rectangle 1453" d="M0,0H32.487a0,0,0,0,1,0,0V0A7.147,7.147,0,0,1,25.34,7.147H0a0,0,0,0,1,0,0V0A0,0,0,0,1,0,0Z" transform="translate(27.107 45.484) rotate(-45)" fill="url(#linear-gradient-2)"/>
            <path id="Rectangle_1454" data-name="Rectangle 1454" d="M0,0H18.842a7.147,7.147,0,0,1,7.147,7.147v0a0,0,0,0,1,0,0H0a0,0,0,0,1,0,0V0A0,0,0,0,1,0,0Z" transform="translate(20.215 29.404) rotate(-45)" fill="#754097"/>
            <path id="Rectangle_1455" data-name="Rectangle 1455" d="M7,0H31.984a7,7,0,0,1,7,7v.147a0,0,0,0,1,0,0H0a0,0,0,0,1,0,0V7A7,7,0,0,1,7,0Z" transform="translate(0 27.566) rotate(-45)" fill="url(#linear-gradient-3)"/>
            <path id="Rectangle_1456" data-name="Rectangle 1456" d="M0,0H38.984a0,0,0,0,1,0,0V.147a7,7,0,0,1-7,7H7a7,7,0,0,1-7-7V0A0,0,0,0,1,0,0Z" transform="translate(5.054 22.512) rotate(45)" fill="url(#linear-gradient-4)"/>
          </g>
        </g>
      </g>
    </g>
  </g>
</svg>
